<svg width="110" height="39" viewBox="0 0 110 39" fill="none" xmlns="http://www.w3.org/2000/svg">
<path d="M0.0497482 32.4122L1.61682 32.0769V24.5227C1.61682 24.1808 1.58365 23.9573 1.51732 23.8521C1.46757 23.7337 1.31004 23.6285 1.04471 23.5365L0 23.0631L0.0746223 21.1893H7.83534L7.95971 23.2012L6.11903 23.5957V32.1164L9.25316 32.0572L11.3675 30.144L13.2828 30.2229C13.2496 31.3274 13.1335 32.7475 12.9345 34.4832H0.174119L0.0497482 32.4122Z" fill="#0A369D"/>
<path d="M22.0975 34.7199C20.1573 34.7199 18.6566 34.2531 17.5953 33.3195C16.5506 32.3859 16.0282 31.0973 16.0282 29.4536C16.0282 28.3097 16.2853 27.33 16.7993 26.5148C17.3134 25.6864 18.043 25.0552 18.9883 24.6213C19.9335 24.1874 21.0362 23.9704 22.2965 23.9704C24.1704 23.9704 25.6048 24.4438 26.5997 25.3905C27.6113 26.3373 28.0922 27.6851 28.0424 29.4339L20.4807 30.5385C20.7129 31.0907 21.0362 31.4984 21.4508 31.7613C21.8819 32.0112 22.4458 32.1361 23.1422 32.1361C23.6231 32.1361 24.1952 32.0835 24.8585 31.9783C25.5218 31.86 26.1934 31.7022 26.8733 31.5049L27.4454 33.4576C26.8319 33.8258 26.0359 34.1282 25.0575 34.3649C24.0792 34.6016 23.0925 34.7199 22.0975 34.7199ZM23.9631 27.7771C23.9299 27.2774 23.7475 26.9158 23.4158 26.6923C23.1008 26.4556 22.653 26.3373 22.0726 26.3373C21.5917 26.3373 21.1357 26.3899 20.7046 26.4951C20.3563 27.1394 20.1988 27.8363 20.232 28.5858L23.9631 27.7771Z" fill="#0A369D"/>
<path d="M33.9745 34.7396C32.8469 34.7396 31.9431 34.4964 31.2632 34.0099C30.5833 33.5102 30.2434 32.8725 30.2434 32.0966C30.2434 31.0579 30.8984 30.2426 32.2084 29.6509C33.5351 29.0592 35.4587 28.7239 37.9792 28.645C37.9792 28.027 37.9129 27.5733 37.7802 27.284C37.6642 26.9816 37.4403 26.7778 37.1086 26.6726C36.7936 26.5542 36.3044 26.4951 35.6411 26.4951C34.9612 26.4951 34.4803 26.5148 34.1984 26.5542L33.1785 28.1519L31.3378 28.0533C31.0559 27.0013 30.8569 25.9099 30.7409 24.7791C31.6695 24.5293 32.681 24.332 33.7755 24.1874C34.8866 24.0427 35.923 23.9704 36.8848 23.9704C38.6425 23.9704 39.9028 24.2465 40.6656 24.7988C41.4284 25.3379 41.8098 26.2387 41.8098 27.501V31.6233C41.8098 31.86 41.8347 32.0243 41.8845 32.1164C41.9508 32.2084 42.0835 32.3005 42.2824 32.3925L43.2774 32.8462L43.1779 34.069C41.2543 34.4241 39.737 34.6213 38.626 34.6607C38.5928 34.5819 38.543 34.4438 38.4767 34.2465C38.4104 34.0362 38.3523 33.8389 38.3026 33.6548C37.6559 33.9836 36.9428 34.2465 36.1634 34.4438C35.4006 34.641 34.671 34.7396 33.9745 34.7396ZM35.6411 32.5108C36.3044 32.5108 37.1086 32.3333 38.0539 31.9783L37.9544 30.4793C37.5564 30.453 37.291 30.4398 37.1584 30.4398C36.7106 30.4398 36.1883 30.4793 35.5913 30.5582C34.9943 30.6239 34.5217 30.7028 34.1735 30.7949C34.1237 30.9658 34.0989 31.1236 34.0989 31.2682C34.0989 31.6627 34.2315 31.9717 34.4969 32.1953C34.7788 32.4057 35.1602 32.5108 35.6411 32.5108Z" fill="#0A369D"/>
<path d="M45.3099 32.6095L46.8272 32.2544V27.4615C46.8272 27.1723 46.8023 26.9882 46.7526 26.9093C46.7028 26.8172 46.5702 26.7186 46.3546 26.6134L45.2601 26.14L45.3348 24.6607C45.6167 24.6082 45.8571 24.5753 46.0561 24.5621C48.0626 24.2334 49.5468 24.0559 50.5086 24.0296C50.6578 24.3715 50.7988 24.7988 50.9314 25.3116C51.9264 24.6936 52.7721 24.2663 53.4686 24.0296H54.8864C54.8698 24.5293 54.8284 25.075 54.762 25.6667C54.6957 26.2452 54.6128 26.712 54.5133 27.0671C53.9163 27.0408 53.4769 27.0276 53.195 27.0276C52.4985 27.0276 51.7772 27.0605 51.0309 27.1262V31.6035C51.0309 31.8797 51.0558 32.0638 51.1056 32.1558C51.1553 32.2479 51.288 32.3465 51.5035 32.4517L52.996 33.0828L52.8965 34.4832H45.4343L45.3099 32.6095Z" fill="#0A369D"/>
<path d="M76.7494 19.8876L80.978 19L81.9978 21.998L77.7941 22.9053L76.7494 19.8876ZM75.7047 32.6686L77.4459 32.2544V27.4615C77.4459 27.1723 77.4127 26.9882 77.3464 26.9093C77.2966 26.8172 77.1557 26.7186 76.9235 26.6134L75.829 26.14L75.9534 24.6607C77.3298 24.4504 78.3911 24.2991 79.1373 24.2071C79.9001 24.1019 80.5966 24.0427 81.2267 24.0296C81.4423 24.595 81.575 25.0158 81.6247 25.2919V31.6035C81.6247 31.8797 81.6496 32.0638 81.6993 32.1558C81.7491 32.2479 81.89 32.3465 82.1222 32.4517L83.341 33.0039L83.2415 34.4832H75.7793L75.7047 32.6686Z" fill="#0A369D"/>
<path d="M85.4473 32.6686L87.1885 32.2544V26.4753L85.4473 26.4556V24.5227L87.1885 24.4438V23.1617C87.1885 21.9652 87.628 21.0381 88.5069 20.3807C89.3857 19.7232 90.6626 19.3945 92.3375 19.3945C93.1998 19.3945 94.2445 19.4799 95.4716 19.6509L94.8995 22.3333C94.1699 22.1755 93.5314 22.0703 92.9842 22.0178C92.4535 21.952 91.9146 21.9257 91.3674 21.9389V24.2663L94.203 24.1282V26.5542L91.3674 26.5148V31.6035C91.3674 31.8797 91.3922 32.0638 91.442 32.1558C91.4917 32.2479 91.6327 32.3465 91.8649 32.4517L93.4071 33.1223L93.3324 34.4832H85.522L85.4473 32.6686Z" fill="#0A369D"/>
<path d="M101.717 39C100.523 38.3688 99.4617 37.5536 98.533 36.5542L101.294 34.4043L97.6873 26.8698C97.5049 26.5148 97.3805 26.2847 97.3142 26.1795C97.2479 26.0743 97.1235 25.9297 96.9411 25.7456L96.5182 25.3116L96.6426 24.1677H103.01L103.259 25.8442L101.816 26.1203L103.856 31.071L106.145 26.5345C106.178 26.4556 106.194 26.3964 106.194 26.357C106.194 26.2387 106.128 26.1598 105.995 26.1203L104.826 25.7258L105.05 24.1677H109.776L110 25.7653L106.816 31.2682C105.672 33.2538 104.727 34.812 103.98 35.9428C103.234 37.0736 102.48 38.0927 101.717 39Z" fill="#0A369D"/>
<path d="M51.1317 16.9234C49.3312 17.2045 47.6024 16.4511 46.5017 15.0244C45.3821 13.573 44.9275 11.6721 45.1677 9.87015C45.1966 9.65728 44.9663 9.47808 44.7729 9.47808C44.5356 9.47808 44.406 9.65827 44.3781 9.87015C44.1119 11.8592 44.6742 13.969 45.9215 15.5511C46.5177 16.3085 47.2843 16.9362 48.1757 17.3214C49.1826 17.757 50.2634 17.8491 51.3431 17.6798C51.5564 17.6461 51.6711 17.3857 51.6193 17.1966C51.5574 16.9729 51.3461 16.8887 51.1327 16.9224L51.1317 16.9234Z" fill="#0A369D"/>
<path d="M47.1587 7.81775C46.9663 7.44549 46.6064 7.75736 46.3531 8.06527C46.4688 7.64845 46.5794 7.22272 46.5176 6.797C46.4837 6.56334 46.3192 6.43166 46.0849 6.47523C45.9125 6.50691 45.8018 6.6168 45.729 6.75937C45.7071 6.66532 45.6732 6.5772 45.6193 6.49602C45.5286 6.35741 45.3492 6.30691 45.1976 6.3683C45.085 6.41384 45.0092 6.52275 44.9653 6.64552C44.9454 6.60888 44.9244 6.57423 44.9005 6.54156C44.7948 6.398 44.6313 6.36632 44.4688 6.42968C44.2744 6.50493 44.1767 6.66235 44.1438 6.84452C44.1009 6.79502 44.0521 6.75046 43.9923 6.71581C43.6283 6.50196 43.3841 6.99699 43.3372 7.26629C43.2605 7.70884 43.3183 8.20091 43.3562 8.64644C43.399 9.15929 43.5336 9.67808 43.8178 10.1127C44.0591 10.482 44.395 10.6899 44.8257 10.7394C45.2684 10.7909 45.6971 10.8226 46.071 10.5305C46.5366 10.1672 46.5645 9.65135 46.7908 9.15335C46.9523 8.7999 47.3681 8.22764 47.1577 7.82072L47.1587 7.81775Z" fill="white"/>
<path d="M44.6224 10.4781C43.8537 10.1899 43.6214 9.21473 43.5825 8.48901C43.5646 8.14645 43.5307 7.79795 43.5546 7.4544C43.5646 7.30787 43.5815 7.12668 43.6732 7.0059C43.7081 6.96035 43.754 6.92768 43.8108 6.91481C43.8467 6.9059 43.8746 6.91283 43.9045 6.93461C44.0262 7.02372 44.081 7.21084 44.1269 7.34549C44.1797 7.49895 44.2196 7.65637 44.2854 7.80488C44.3671 7.98903 44.6393 7.82963 44.5586 7.64647C44.5486 7.6237 44.5147 7.52172 44.4977 7.46826C44.4688 7.37618 44.4399 7.28311 44.407 7.19203C44.3462 7.02669 44.2734 6.84947 44.1428 6.72571C44.0032 6.59403 43.8178 6.56631 43.6433 6.64254C43.4569 6.72373 43.3512 6.89501 43.2964 7.08312C43.1797 7.48707 43.2465 7.91874 43.2615 8.3306C43.2774 8.76722 43.3323 9.20483 43.4848 9.61768C43.6752 10.1325 44.0072 10.582 44.5376 10.781C44.728 10.8523 44.8108 10.5493 44.6214 10.4781H44.6224Z" fill="#0A369D"/>
<path d="M44.3711 7.07519C44.3661 7.0247 44.3642 6.97421 44.3671 6.92371C44.3671 6.91282 44.3691 6.90292 44.3701 6.89203C44.3661 6.92371 44.3741 6.87223 44.3741 6.87025C44.3801 6.84352 44.3871 6.81778 44.3971 6.79303C44.3871 6.81877 44.409 6.77124 44.408 6.77124C44.413 6.76134 44.419 6.75243 44.425 6.74253C44.4529 6.69996 44.417 6.74946 44.4359 6.72768C44.4459 6.71679 44.4559 6.7059 44.4668 6.69699C44.4509 6.71085 44.4668 6.69699 44.4698 6.69501C44.4798 6.68808 44.4908 6.68115 44.5007 6.67521C44.5167 6.66531 44.5336 6.65739 44.5506 6.64848C44.5606 6.64353 44.5925 6.63462 44.5506 6.64848C44.5566 6.6465 44.5626 6.64353 44.5685 6.64155C44.5825 6.63759 44.5984 6.63462 44.6124 6.62967C44.6403 6.61976 44.5815 6.62967 44.5994 6.63066C44.6054 6.63066 44.6134 6.62967 44.6194 6.62967C44.6244 6.62967 44.6304 6.62967 44.6353 6.62967C44.6692 6.6267 44.6244 6.6267 44.6274 6.62769C44.6363 6.63165 44.6493 6.63363 44.6593 6.63561C44.6952 6.64353 44.6313 6.6158 44.6613 6.63759C44.6662 6.64056 44.6722 6.64452 44.6772 6.6465C44.6991 6.65739 44.6772 6.63957 44.6662 6.6366C44.6762 6.63858 44.6912 6.65838 44.6971 6.66531C44.6991 6.66729 44.7221 6.69105 44.7211 6.69204C44.7181 6.69501 44.6971 6.6564 44.7161 6.68709C44.7191 6.69204 44.7221 6.69699 44.7251 6.70095C44.742 6.72768 44.756 6.7554 44.7699 6.78412C44.7849 6.81481 44.76 6.75639 44.7739 6.79501C44.7799 6.81085 44.7859 6.8257 44.7909 6.84154C44.8028 6.87619 44.8128 6.91183 44.8208 6.94649C44.8387 7.01777 44.8517 7.09005 44.8626 7.16331C44.8646 7.17321 44.8676 7.20093 44.8626 7.16034C44.8626 7.16727 44.8646 7.17519 44.8656 7.18212C44.8676 7.20093 44.8696 7.21875 44.8716 7.23756C44.8756 7.27717 44.8796 7.31776 44.8826 7.35736C44.8926 7.48805 44.8965 7.61973 44.8965 7.75141C44.8965 7.95338 45.2126 7.95338 45.2126 7.75141C45.2126 7.44746 45.1986 7.13262 45.1199 6.83758C45.08 6.69006 45.0192 6.52868 44.9015 6.42373C44.763 6.29997 44.5855 6.29205 44.42 6.36433C44.1338 6.48908 44.0252 6.78016 44.0551 7.07618C44.0641 7.16034 44.1219 7.2336 44.2136 7.2336C44.2924 7.2336 44.3801 7.16133 44.3721 7.07618L44.3711 7.07519Z" fill="#0A369D"/>
<path d="M45.1597 6.94054C45.1577 6.92272 45.1567 6.9049 45.1567 6.88708C45.1567 6.87817 45.1597 6.83758 45.1587 6.84847C45.1577 6.85837 45.1647 6.81678 45.1667 6.80688C45.1727 6.78312 45.1796 6.75936 45.1876 6.7356C45.1966 6.70887 45.1906 6.72273 45.2006 6.70392C45.2105 6.68511 45.2205 6.6653 45.2325 6.64649C45.2385 6.63758 45.2444 6.62867 45.2504 6.61976C45.2454 6.6257 45.2355 6.63659 45.2554 6.61481C45.2624 6.60788 45.3013 6.5762 45.2793 6.59006C45.2873 6.58511 45.2953 6.58016 45.3043 6.57521C45.2903 6.58313 45.2953 6.5861 45.3053 6.57521C45.3063 6.57422 45.3312 6.56927 45.3112 6.57224C45.2913 6.57521 45.3182 6.57224 45.3242 6.57224C45.3451 6.57323 45.3631 6.57917 45.3332 6.57224C45.3481 6.5762 45.3641 6.58115 45.379 6.58412C45.399 6.58907 45.3521 6.56927 45.3691 6.58016C45.3731 6.58313 45.378 6.58412 45.382 6.58709C45.398 6.59798 45.4129 6.61382 45.391 6.59105C45.399 6.59897 45.4079 6.60788 45.4159 6.6158C45.4379 6.6356 45.406 6.596 45.4259 6.62867C45.4339 6.64055 45.4408 6.65342 45.4478 6.66629C45.4508 6.67124 45.4528 6.67619 45.4548 6.68115C45.4648 6.69996 45.4448 6.65441 45.4528 6.6752C45.4638 6.7059 45.4747 6.7356 45.4817 6.76728C45.4887 6.79896 45.4947 6.83064 45.5007 6.86332C45.5057 6.89104 45.4997 6.8455 45.5027 6.88213C45.5047 6.90292 45.5066 6.92371 45.5086 6.9445C45.5196 7.094 45.5136 7.24449 45.5037 7.393C45.4947 7.52666 45.4787 7.65933 45.4747 7.79299C45.4688 7.99496 45.7848 7.99496 45.7908 7.79299C45.7998 7.48409 45.8546 7.17717 45.8177 6.86728C45.7978 6.69996 45.7599 6.52472 45.6422 6.39601C45.5176 6.25938 45.3003 6.21483 45.1368 6.30591C44.9344 6.41977 44.8157 6.71382 44.8427 6.93757C44.8526 7.02173 44.9075 7.09499 45.0012 7.09499C45.0789 7.09499 45.1697 7.02272 45.1597 6.93757V6.94054Z" fill="#0A369D"/>
<path d="M45.8098 7.54251C45.8268 7.36034 45.8437 7.1752 45.8955 6.99798C45.9265 6.89006 45.9743 6.76531 46.087 6.71977C46.1089 6.71086 46.1328 6.70591 46.1558 6.69997C46.1996 6.68908 46.1478 6.69601 46.1807 6.697C46.2006 6.697 46.2345 6.70492 46.1976 6.69601C46.2036 6.697 46.2176 6.69799 46.2216 6.70195C46.2475 6.72769 46.2026 6.68215 46.2226 6.70195C46.2505 6.72868 46.2106 6.68908 46.2285 6.70393C46.2355 6.70987 46.2425 6.7168 46.2485 6.72373C46.2465 6.72076 46.2285 6.69304 46.2415 6.71482C46.2505 6.72967 46.2585 6.74353 46.2664 6.75937C46.2485 6.72373 46.2694 6.77026 46.2734 6.78412C46.2794 6.80393 46.2824 6.82373 46.2874 6.84353C46.2894 6.85145 46.2904 6.86036 46.2914 6.86828C46.2854 6.83363 46.2914 6.86432 46.2914 6.87323C46.2953 6.92174 46.2973 6.96927 46.2973 7.01778C46.2973 7.06629 46.2943 7.11877 46.2894 7.16926C46.2844 7.21975 46.2774 7.28609 46.2734 7.31381C46.2415 7.53657 46.1907 7.75736 46.1348 7.97517C46.0949 8.13061 46.0441 8.28407 46.0082 8.43951C45.9633 8.63653 46.2674 8.72069 46.3133 8.52268C46.408 8.10883 46.5416 7.70983 46.5934 7.28609C46.6204 7.0653 46.6393 6.8168 46.5436 6.60987C46.4479 6.40295 46.2256 6.34256 46.0162 6.40988C45.5576 6.55641 45.5306 7.14253 45.4928 7.53954C45.4738 7.74053 45.7899 7.73954 45.8088 7.53954L45.8098 7.54251Z" fill="#0A369D"/>
<path d="M44.9564 10.8404C45.3761 10.9166 45.7989 10.8582 46.1398 10.5909C46.4808 10.3236 46.6433 9.9147 46.746 9.49887C46.8487 9.08304 47.1229 8.74147 47.2415 8.33555C47.2943 8.15436 47.3133 7.95635 47.2295 7.78111C47.1578 7.63062 47.0112 7.54449 46.8427 7.5831C46.6642 7.62468 46.5127 7.77022 46.3931 7.89992C46.2585 8.04645 46.1358 8.20783 46.0341 8.37911C45.9325 8.55039 46.2036 8.71177 46.3073 8.53752C46.4399 8.31475 46.6184 8.05536 46.8467 7.91972C46.8826 7.89893 46.9245 7.88507 46.9304 7.88606C46.9075 7.88309 46.9304 7.89002 46.9255 7.88309C46.9384 7.90091 46.9504 7.92566 46.9584 7.95041C47.0022 8.08506 46.9444 8.24149 46.8975 8.36822C46.7749 8.70088 46.5705 9.00087 46.4629 9.34046C46.409 9.50778 46.3851 9.68005 46.3143 9.84341C46.2495 9.9939 46.1608 10.1375 46.0461 10.2553C45.7809 10.5266 45.409 10.6058 45.0421 10.5384C44.8427 10.5018 44.758 10.8048 44.9584 10.8414L44.9564 10.8404Z" fill="#0A369D"/>
<path d="M45.0172 11.5988C44.6643 11.5988 44.2825 11.478 44.114 11.3176C44.089 10.981 44.1249 10.7177 44.2236 10.5186C44.6454 10.7167 45.089 10.7662 45.3004 10.779C45.3283 10.9137 45.3323 11.0691 45.3124 11.2345C45.3004 11.3196 45.2366 11.5097 45.1917 11.5869C45.1389 11.5948 45.0801 11.5988 45.0172 11.5988Z" fill="#99DAF0"/>
<path d="M44.3133 10.7276C44.6334 10.8523 44.9494 10.9038 45.1638 10.9246C45.1717 11.0137 45.1698 11.1107 45.1568 11.2117C45.1508 11.2563 45.1189 11.3622 45.088 11.4394C45.0661 11.4404 45.0421 11.4414 45.0182 11.4414C44.7151 11.4414 44.415 11.3454 44.2685 11.2394C44.2585 11.0384 44.2735 10.8672 44.3143 10.7266M44.1668 10.3107C43.9494 10.6117 43.9295 11.0236 43.9624 11.384C44.1598 11.6206 44.6354 11.7552 45.0192 11.7552C45.1129 11.7552 45.2017 11.7473 45.2794 11.7305C45.3652 11.6582 45.4569 11.3513 45.4708 11.2533C45.4968 11.0434 45.4908 10.8216 45.425 10.6256H45.423C45.3871 10.6256 44.7191 10.6216 44.1668 10.3117V10.3107Z" fill="#0A369D"/>
<path d="M57.2978 21.4999C57.5403 21.6853 57.7723 21.8722 57.9937 22.0639C58.1026 22.1581 58.2081 22.2539 58.31 22.3513C58.3521 22.389 58.3908 22.4283 58.4295 22.4676C58.4681 22.5069 58.5806 22.6828 58.6614 22.7001C58.6403 22.6954 58.4505 22.4707 58.6017 22.6373C58.6474 22.686 58.6895 22.7347 58.7352 22.7849C58.8125 22.8729 58.8899 22.9624 58.9601 23.052C59.1394 23.2704 59.301 23.4903 59.4486 23.7134C59.7157 24.1171 59.9372 24.5287 60.1094 24.9434C60.1515 25.0471 60.1937 25.1508 60.2288 25.256C60.2499 25.3189 60.271 25.3817 60.2921 25.4445C60.3167 25.5152 60.2816 25.6126 60.271 25.3676C60.2816 25.5969 60.3905 25.8326 60.4327 26.0619C60.5803 26.9102 60.5522 27.7648 60.38 28.6116C60.3378 28.8237 60.271 29.0357 60.2218 29.2478C60.2956 28.9211 60.2042 29.2965 60.1832 29.3641C60.141 29.4913 60.0953 29.617 60.0461 29.7427C59.8809 30.1621 59.6841 30.58 59.4592 30.9931C58.9426 31.931 58.2643 32.85 57.4454 33.7423C57.2416 33.9654 57.4103 34.3125 57.6703 34.5105C57.9304 34.7084 58.4716 34.9142 59.0023 34.9676C59.5717 35.0258 60.2148 35.0132 60.7209 34.8671C61.227 34.721 61.5116 34.5262 61.7436 34.2717C64.8363 30.8942 66.0804 26.9904 63.9049 23.4259C63.2794 22.4032 62.3481 21.4088 61.1496 20.4945C60.5592 20.0452 59.1148 19.8457 58.0991 20.1363C57.0834 20.4269 56.6687 21.0192 57.2978 21.4999Z" fill="#0A369D"/>
<path d="M64.3265 21.6052C64.8572 21.9975 65.3552 22.3999 65.8023 22.8139C66.0022 22.9967 66.1912 23.1828 66.3694 23.3705C66.3984 23.4024 66.4784 23.4644 66.493 23.5013C66.413 23.2783 66.3875 23.3856 66.4675 23.4762C66.562 23.5851 66.6565 23.6941 66.7438 23.8031C67.3763 24.5826 67.8379 25.389 68.1215 26.2105C68.1505 26.2976 68.1578 26.3915 68.2087 26.477C68.0524 26.2121 68.1687 26.3396 68.1942 26.4267C68.2087 26.4821 68.2232 26.5374 68.2378 26.5927C68.285 26.7922 68.3214 26.9934 68.3505 27.1946C68.4086 27.6103 68.4268 28.0261 68.4123 28.4418C68.3977 28.8576 68.3468 29.2616 68.2669 29.6707C68.2305 29.8668 68.1833 30.0613 68.136 30.2575C68.1215 30.3145 68.1069 30.3731 68.0887 30.4301L68.0778 30.4653C68.0451 30.5827 68.0524 30.5576 68.0996 30.3916C68.0015 30.4637 68.016 30.6565 67.987 30.7403C67.6562 31.7244 67.1909 32.6967 66.6565 33.6624C66.3585 34.2005 67.0382 34.8409 68.2669 34.97C69.4955 35.0991 70.7823 34.804 71.1022 34.2273C73.0433 30.7252 74.0357 26.985 71.3966 23.4979C70.6115 22.4602 69.5718 21.461 68.3105 20.5289C67.6707 20.0578 66.224 19.8298 65.1553 20.1467C64.0865 20.4635 63.6431 21.0972 64.3265 21.6019V21.6052Z" fill="#0A369D"/>
<path d="M75.6016 13.5342C76.4015 13.1251 77.1677 12.6389 77.7579 11.9517C78.3519 11.2592 78.7564 10.4077 78.9518 9.51556C79.3098 7.87925 78.8279 6.26821 78.185 4.7651C77.9878 4.30545 77.3022 4.65657 77.4982 5.1136C78.0572 6.41934 78.5098 7.84591 78.2179 9.27341C78.0603 10.0489 77.7161 10.7767 77.2241 11.3933C76.7084 12.0383 75.9744 12.4743 75.2507 12.8447C74.809 13.0711 75.159 13.761 75.6012 13.5355L75.6016 13.5342Z" fill="#0A369D"/>
<path d="M65.4684 21.6618C64.7067 21.6618 64.0218 21.2123 63.7227 20.5163C63.6968 20.4569 63.639 20.4212 63.5771 20.4212C63.5562 20.4212 63.5353 20.4252 63.5153 20.4341C63.1494 20.5886 62.7606 20.6678 62.3588 20.6678C60.7317 20.6678 59.4077 19.353 59.4077 17.7372C59.4077 17.5214 59.4326 17.3035 59.4805 17.0897C59.4915 17.0422 59.4795 16.9927 59.4476 16.955C59.4177 16.9194 59.3728 16.8986 59.326 16.8986C59.324 16.8986 59.309 16.8986 59.309 16.8986C59.2891 16.8986 59.2691 16.9006 59.2492 16.9006C58.2034 16.9006 57.3519 16.0551 57.3519 15.0165C57.3519 14.3234 57.7338 13.6878 58.3489 13.3581C58.4008 13.3304 58.4317 13.2769 58.4317 13.2195C58.4317 13.1611 58.3988 13.1086 58.3469 13.0819C57.8953 12.8453 57.6151 12.3839 57.6151 11.878C57.6151 11.1275 58.2293 10.5176 58.985 10.5176C58.985 10.5176 59.0099 10.5176 59.0119 10.5176C59.0568 10.5176 59.1046 10.4988 59.1345 10.4652C59.1655 10.4305 59.1844 10.383 59.1774 10.3374C59.1545 10.1899 59.1425 10.0385 59.1425 9.88895C59.1425 8.27317 60.4665 6.95836 62.0936 6.95836C62.645 6.95836 63.1843 7.11083 63.6509 7.39993C63.6768 7.41577 63.7058 7.42369 63.7347 7.42369C63.7586 7.42369 63.7835 7.41775 63.8055 7.40686C63.8543 7.38211 63.8872 7.3336 63.8922 7.27914C63.97 6.3069 64.7995 5.54554 65.7825 5.54554C66.1693 5.54554 66.5412 5.66039 66.8582 5.8782C66.8852 5.89701 66.9171 5.90592 66.948 5.90592C66.9898 5.90592 67.0307 5.88909 67.0616 5.85741C67.3228 5.5891 67.6728 5.44059 68.0477 5.44059C68.3348 5.44059 68.61 5.52772 68.8433 5.69405C68.8712 5.71385 68.9031 5.72375 68.935 5.72375C68.9669 5.72375 68.9978 5.71484 69.0247 5.69603C69.3427 5.47822 69.7146 5.36238 70.1025 5.36238C71.1483 5.36238 71.9997 6.20789 71.9997 7.24647C71.9997 7.27914 71.9997 7.31181 71.9977 7.3435C71.9957 7.38607 72.0117 7.42864 72.0416 7.45933C72.0715 7.49003 72.1124 7.50785 72.1563 7.50785C72.6877 7.50785 73.1592 7.80091 73.3915 8.27317C73.4155 8.32168 73.4633 8.35534 73.5172 8.36029C75.0256 8.51375 76.1642 9.76717 76.1642 11.275C76.1642 11.9097 75.9628 12.5146 75.5819 13.0225C75.5321 13.0888 75.543 13.1819 75.6059 13.2354C76.2619 13.7938 76.6387 14.6046 76.6387 15.461C76.6387 16.6679 75.9089 17.7362 74.7793 18.1837C74.7155 18.2085 74.6757 18.2728 74.6806 18.3401C74.6866 18.4203 74.6886 18.4867 74.6886 18.549C74.6886 20.1648 73.3646 21.4796 71.7375 21.4796C70.7694 21.4796 69.8622 21.0064 69.3098 20.2143C69.2809 20.1727 69.2331 20.147 69.1822 20.147H69.1802C69.1304 20.147 69.0825 20.1708 69.0526 20.2114C68.6957 20.6945 68.1234 20.9826 67.5222 20.9826C67.3757 20.9826 67.2281 20.9658 67.0836 20.9311C67.0716 20.9282 67.0596 20.9272 67.0467 20.9272C67.0008 20.9272 66.9559 20.948 66.925 20.9836C66.5631 21.4153 66.0317 21.6628 65.4664 21.6628L65.4684 21.6618Z" fill="#F7ADC1"/>
<path d="M70.1065 5.51796C71.0656 5.51796 71.8452 6.29219 71.8452 7.24463C71.8452 7.27433 71.8452 7.30502 71.8432 7.33473C71.8393 7.42086 71.8722 7.50403 71.932 7.5664C71.9918 7.62878 72.0755 7.66343 72.1623 7.66343C72.6299 7.66343 73.0476 7.92282 73.253 8.34063C73.3008 8.43865 73.3966 8.50399 73.5052 8.51587C74.9329 8.66141 76.0097 9.84751 76.0097 11.2752C76.0097 11.8761 75.8192 12.4484 75.4583 12.9296C75.3586 13.0622 75.3806 13.2484 75.5062 13.3553C76.1273 13.884 76.4832 14.6513 76.4832 15.4622C76.4832 16.6047 75.7923 17.6155 74.7235 18.0393C74.5959 18.0898 74.5152 18.2165 74.5251 18.3531C74.5301 18.4304 74.5331 18.4927 74.5331 18.5502C74.5331 20.0798 73.2799 21.3233 71.7405 21.3233C70.8243 21.3233 69.9649 20.8758 69.4425 20.1264C69.3847 20.0432 69.2889 19.9927 69.1873 19.9907C69.1863 19.9907 69.1843 19.9907 69.1833 19.9907C69.0826 19.9907 68.9879 20.0382 68.928 20.1194C68.601 20.562 68.0766 20.8263 67.5253 20.8263C67.3907 20.8263 67.2551 20.8105 67.1225 20.7798C67.0986 20.7739 67.0736 20.7709 67.0497 20.7709C66.957 20.7709 66.8673 20.8115 66.8064 20.8837C66.4744 21.2798 65.9879 21.5065 65.4695 21.5065C64.7716 21.5065 64.1435 21.0946 63.8693 20.457C63.8185 20.3372 63.7008 20.266 63.5782 20.266C63.5373 20.266 63.4944 20.2739 63.4545 20.2907C63.1086 20.4372 62.7407 20.5115 62.3608 20.5115C60.8205 20.5115 59.5683 19.267 59.5683 17.7383C59.5683 17.5344 59.5912 17.3274 59.6381 17.1255C59.66 17.0304 59.6351 16.9304 59.5733 16.8562C59.5134 16.7839 59.4237 16.7433 59.33 16.7433C59.326 16.7433 59.322 16.7433 59.318 16.7433H59.3071C59.2891 16.7443 59.2712 16.7453 59.2532 16.7453C58.2941 16.7453 57.5145 15.9711 57.5145 15.0186C57.5145 14.383 57.8644 13.8008 58.4287 13.4979C58.5314 13.4424 58.5952 13.3355 58.5942 13.2197C58.5942 13.1038 58.5284 12.9979 58.4257 12.9434C58.0259 12.7345 57.7777 12.3256 57.7777 11.8781C57.7777 11.2148 58.321 10.6742 58.99 10.6742C58.995 10.6742 59 10.6742 59.006 10.6742H59.0159C59.0159 10.6742 59.0229 10.6742 59.0259 10.6742C59.1166 10.6742 59.2024 10.6356 59.2622 10.5683C59.325 10.499 59.3519 10.4049 59.338 10.3128C59.316 10.1732 59.3051 10.0297 59.3051 9.8881C59.3051 8.35845 60.5583 7.11493 62.0976 7.11493C62.6201 7.11493 63.1295 7.25948 63.5712 7.53274C63.622 7.56442 63.6799 7.58026 63.7387 7.58026C63.7875 7.58026 63.8364 7.56937 63.8813 7.5466C63.98 7.4971 64.0458 7.40007 64.0537 7.29116C64.1245 6.40011 64.8862 5.70211 65.7865 5.70211C66.1404 5.70211 66.4814 5.80706 66.7725 6.00705C66.8274 6.04467 66.8902 6.06249 66.952 6.06249C67.0357 6.06249 67.1185 6.02982 67.1793 5.96646C67.4096 5.72884 67.7197 5.59815 68.0517 5.59815C68.3059 5.59815 68.5492 5.67538 68.7556 5.82191C68.8104 5.86052 68.8752 5.88032 68.94 5.88032C69.0048 5.88032 69.0656 5.86151 69.1195 5.82488C69.4106 5.62489 69.7525 5.51895 70.1075 5.51895M70.1075 5.2051C69.6738 5.2051 69.272 5.33876 68.94 5.56647C68.6898 5.38826 68.3837 5.28331 68.0517 5.28331C67.619 5.28331 67.2292 5.46153 66.951 5.74864C66.62 5.52192 66.2182 5.38826 65.7855 5.38826C64.7058 5.38826 63.8204 6.21496 63.7377 7.26641C63.2611 6.97236 62.6998 6.80108 62.0966 6.80108C60.3798 6.80108 58.987 8.18321 58.987 9.88909C58.987 10.0495 58.999 10.2069 59.0229 10.3614C59.011 10.3614 58.999 10.3614 58.987 10.3614C58.1436 10.3614 57.4586 11.0405 57.4586 11.8791C57.4586 12.4623 57.7896 12.9682 58.2752 13.2216C57.6321 13.5662 57.1954 14.2424 57.1954 15.0186C57.1954 16.1453 58.1157 17.0601 59.2502 17.0601C59.2762 17.0601 59.3021 17.0591 59.327 17.0581C59.2772 17.2779 59.2502 17.5057 59.2502 17.7403C59.2502 19.4452 60.642 20.8283 62.3599 20.8283C62.7925 20.8283 63.2043 20.7412 63.5782 20.5818C63.8912 21.3115 64.62 21.8223 65.4695 21.8223C66.1046 21.8223 66.6728 21.5362 67.0497 21.0867C67.2022 21.1224 67.3618 21.1422 67.5253 21.1422C68.2062 21.1422 68.8094 20.8135 69.1833 20.3065C69.7446 21.1115 70.6807 21.6392 71.7405 21.6392C73.4574 21.6392 74.8502 20.257 74.8502 18.5521C74.8502 18.4779 74.8462 18.4056 74.8412 18.3324C75.9887 17.8779 76.7993 16.7651 76.7993 15.4641C76.7993 14.5256 76.3766 13.685 75.7116 13.1197C76.0974 12.6058 76.3247 11.9682 76.3247 11.2782C76.3247 9.68019 75.1024 8.36637 73.5361 8.20697C73.2879 7.70204 72.7655 7.35354 72.1613 7.35354H72.1583C72.1603 7.31889 72.1613 7.28423 72.1613 7.24859C72.1613 6.1219 71.2411 5.20807 70.1065 5.20807L70.1075 5.2051Z" fill="#0A369D"/>
<path d="M60.304 13.1097C60.0398 13.2473 59.7407 13.3126 59.4426 13.3096C59.1286 13.3067 58.8534 13.2077 58.5882 13.0453C58.323 12.8829 58.0777 12.675 57.9322 12.4008C57.8086 12.1661 57.7647 11.883 57.8046 11.6216C57.8175 11.5374 57.7836 11.4543 57.6939 11.4285C57.6191 11.4077 57.5124 11.4543 57.4995 11.5384C57.4496 11.8681 57.4875 12.2008 57.6311 12.5047C57.7896 12.8394 58.0837 13.0998 58.3928 13.2958C58.7019 13.4918 59.0339 13.6126 59.4027 13.6235C59.7716 13.6344 60.1385 13.5512 60.4625 13.3819C60.643 13.2879 60.4835 13.0166 60.303 13.1106L60.304 13.1097Z" fill="#0A369D"/>
<path d="M59.0728 10.6721C59.2104 10.6711 59.338 10.6563 59.4637 10.683C59.5793 10.7077 59.687 10.7424 59.7777 10.7889C59.8266 10.8137 59.8744 10.8424 59.9183 10.8741C59.9273 10.88 59.9273 10.88 59.9183 10.8741L59.9303 10.884C59.9422 10.8939 59.9542 10.9048 59.9662 10.9157C59.9851 10.9335 60.004 10.9523 60.021 10.9721C60.023 10.9751 60.0479 11.0048 60.0389 10.9929C60.03 10.981 60.0529 11.0117 60.0539 11.0147C60.0688 11.0364 60.0818 11.0592 60.0938 11.082C60.1117 11.1156 60.1297 11.1691 60.1426 11.2285C60.1606 11.3117 60.2583 11.3592 60.337 11.3384C60.4238 11.3146 60.4656 11.2285 60.4477 11.1453C60.3899 10.8721 60.1955 10.6543 59.9512 10.5256C59.8276 10.4602 59.693 10.4127 59.5554 10.382C59.4776 10.3652 59.3979 10.3513 59.3181 10.3503C59.2383 10.3493 59.1536 10.3573 59.0719 10.3582C58.8685 10.3602 58.8685 10.6741 59.0719 10.6721H59.0728Z" fill="#0A369D"/>
<path d="M64.9052 9.02958C64.4625 8.96522 64.1893 8.51475 64.0896 8.11872C63.971 7.64745 64.0328 7.1445 64.2152 6.69798C64.292 6.51086 63.9859 6.42967 63.9102 6.61481C63.6988 7.1346 63.646 7.73755 63.8055 8.27812C63.9431 8.74345 64.303 9.25729 64.8204 9.33254C64.9052 9.34442 64.9889 9.31175 65.0148 9.22264C65.0358 9.14938 64.9889 9.04146 64.9042 9.02958H64.9052Z" fill="#0A369D"/>
<path d="M66.7446 5.99504C66.8224 6.07722 66.9051 6.15543 66.9799 6.24058C67.0547 6.32572 67.1025 6.41483 67.1484 6.51285C67.2441 6.71383 67.3099 6.9356 67.3308 7.15738C67.3388 7.24153 67.3976 7.3148 67.4894 7.3148C67.5691 7.3148 67.6559 7.24252 67.6479 7.15738C67.622 6.88412 67.5472 6.62373 67.4325 6.37523C67.3767 6.25444 67.3109 6.14553 67.2252 6.04356C67.1454 5.94851 67.0547 5.86336 66.9689 5.77327C66.8294 5.62575 66.606 5.84851 66.7456 5.99504H66.7446Z" fill="#0A369D"/>
<path d="M70.2929 7.99695C70.6029 8.09199 70.9429 8.07417 71.255 7.99695C71.567 7.91972 71.8761 7.80488 72.0984 7.5732C72.239 7.42667 72.0157 7.2049 71.8751 7.35143C71.6887 7.54548 71.4255 7.63161 71.1712 7.69498C70.917 7.75834 70.6348 7.77418 70.3766 7.69498C70.1822 7.63557 70.0985 7.93853 70.2929 7.99794V7.99695Z" fill="#0A369D"/>
<path d="M73.258 8.33852C73.5103 8.86821 73.1812 9.40284 72.8822 9.83451C72.8333 9.9048 72.8692 10.0088 72.939 10.0494C73.0177 10.0949 73.1065 10.0632 73.1553 9.99292C73.3408 9.72659 73.5182 9.44541 73.609 9.13156C73.6997 8.81771 73.6758 8.48307 73.5312 8.18011C73.4943 8.10388 73.3836 8.08408 73.3148 8.12368C73.2361 8.16922 73.2211 8.2613 73.258 8.33852Z" fill="#0A369D"/>
<path d="M73.3936 12.9027C73.6448 13.178 74.0346 13.3542 74.4005 13.4166C74.8302 13.4898 75.253 13.3968 75.6358 13.1958C75.8153 13.1007 75.6557 12.8304 75.4763 12.9245C75.1622 13.0898 74.8023 13.175 74.4484 13.1067C74.1443 13.0483 73.8283 12.9106 73.6179 12.68C73.4803 12.5305 73.258 12.7522 73.3946 12.9017L73.3936 12.9027Z" fill="#0A369D"/>
<path d="M64.1634 20.9262C63.8523 20.5351 63.7476 20.0361 63.9002 19.5599C64.0258 19.1678 64.3089 18.8233 64.6878 18.6491C64.8722 18.5639 64.7117 18.2936 64.5283 18.3778C64.0687 18.5887 63.7277 19.0312 63.5861 19.5084C63.4126 20.0906 63.5672 20.6797 63.9401 21.149C64.0657 21.3074 64.289 21.0836 64.1634 20.9272V20.9262Z" fill="#0A369D"/>
<path d="M66.5762 21.5093C66.7886 21.3579 66.972 21.1658 67.0857 20.9302C67.1993 20.6945 67.2462 20.4331 67.2342 20.1708C67.2302 20.0856 67.1644 20.0134 67.0757 20.0134C66.993 20.0134 66.9132 20.0856 66.9172 20.1708C66.9202 20.2282 66.9202 20.2866 66.9172 20.344C66.9142 20.4064 66.9102 20.4332 66.9012 20.4856C66.8923 20.5381 66.8783 20.5916 66.8614 20.644C66.8444 20.6965 66.8295 20.7351 66.8125 20.7718C66.7208 20.9638 66.5852 21.1183 66.4167 21.2391C66.3479 21.2886 66.314 21.3757 66.3599 21.4539C66.3997 21.5222 66.5064 21.5598 66.5762 21.5103V21.5093Z" fill="#0A369D"/>
<path d="M68.953 19.1282C68.9171 19.4886 68.953 19.85 69.1195 20.1767C69.3009 20.5321 69.613 20.8084 69.925 21.049C69.9928 21.1004 70.0826 21.1143 70.1484 21.049C70.2032 20.9945 70.2162 20.8797 70.1484 20.8272C69.8622 20.6064 69.5731 20.3609 69.4016 20.0371C69.2531 19.7549 69.2381 19.4391 69.269 19.1282C69.277 19.0441 69.1903 18.9708 69.1105 18.9708C69.0178 18.9708 68.9609 19.0431 68.952 19.1282H68.953Z" fill="#0A369D"/>
<path d="M59.5752 17.9114C59.5712 17.5144 59.5991 17.1016 59.7607 16.7333C59.9032 16.4085 60.1445 16.1521 60.4167 15.9293C60.5742 15.8006 60.3489 15.5798 60.1934 15.7076C59.8953 15.9521 59.633 16.2422 59.4775 16.5976C59.2961 17.0115 59.2552 17.4649 59.2592 17.9114C59.2612 18.1134 59.5772 18.1134 59.5752 17.9114Z" fill="#0A369D"/>
<path d="M74.8362 18.7896C74.8332 18.4718 74.8502 18.151 74.8003 17.8362C74.7505 17.5214 74.6099 17.2491 74.4195 17.0036C74.3676 16.9362 74.2839 16.9006 74.2031 16.9471C74.1363 16.9857 74.0944 17.0946 74.1463 17.162C74.3228 17.3887 74.4524 17.6342 74.4952 17.9194C74.5381 18.2045 74.5172 18.5015 74.5192 18.7896C74.5212 18.9916 74.8372 18.9916 74.8352 18.7896H74.8362Z" fill="#0A369D"/>
<g style="mix-blend-mode:multiply">
<path d="M59.5045 8.39C59.9451 8.1009 60.4416 7.84348 60.9581 7.71874C61.5314 7.58013 62.1156 7.56924 62.7018 7.53161C63.2352 7.49795 63.8284 7.47122 64.301 7.194C64.7427 6.9356 65.1355 6.56729 65.6858 6.59798C65.9759 6.61383 66.285 6.71877 66.5711 6.63363C66.7715 6.57422 66.949 6.47522 67.1295 6.37027C67.5203 6.14156 67.9041 5.95741 68.3677 5.95543C68.9918 5.95345 69.6957 5.88019 70.2929 6.10097C70.9071 6.3277 71.1782 6.79303 71.3198 7.39895C71.3507 7.53062 71.3986 7.991 71.5521 8.03952C71.7685 8.10783 72.0008 8.09694 72.2161 8.16922C72.3816 8.22466 72.5511 8.30188 72.6717 8.43158C72.7555 8.52168 72.8183 8.63158 72.905 8.7187C73.1084 8.92562 73.4265 8.88701 73.6957 8.91869C74.3636 8.99691 74.9289 9.45234 75.3028 9.98796C75.7185 10.583 75.914 11.2156 75.7863 11.9354C75.7205 12.3047 75.6896 12.6166 75.8053 12.9809C76.1333 12.4918 76.3257 11.9037 76.3257 11.2721C76.3257 9.67411 75.1034 8.3603 73.5371 8.2009C73.2889 7.69597 72.7665 7.34746 72.1623 7.34746H72.1593C72.1613 7.31281 72.1623 7.27816 72.1623 7.24252C72.1623 6.11582 71.2421 5.20199 70.1075 5.20199C69.6738 5.20199 69.272 5.33565 68.94 5.56337C68.6898 5.38516 68.3837 5.28021 68.0517 5.28021C67.619 5.28021 67.2292 5.45842 66.951 5.74554C66.62 5.51881 66.2182 5.38516 65.7855 5.38516C64.7058 5.38516 63.8204 6.21186 63.7377 7.26331C63.2611 6.96926 62.6998 6.79798 62.0967 6.79798C60.8704 6.79798 59.8096 7.5029 59.3041 8.52762C59.3699 8.4801 59.4367 8.43257 59.5055 8.38802L59.5045 8.39Z" fill="#F8B2BB"/>
</g>
<g style="mix-blend-mode:multiply">
<path d="M76.7993 15.4601C76.7993 14.6254 76.4643 13.869 75.9229 13.3136C76.0067 13.5344 76.0934 13.7562 76.1433 13.9859C76.2848 14.6393 76.223 15.3571 76.0396 15.9977C75.8521 16.6501 75.5211 17.1511 75.0476 17.6342C74.8302 17.856 74.6089 18.0788 74.4783 18.3639C74.3417 18.6619 74.3208 18.9956 74.2061 19.3025C74.0915 19.6084 73.8781 19.8599 73.578 19.9975C73.3198 20.1163 73.0875 20.2698 72.8333 20.3936C72.2221 20.6916 71.5262 20.4747 70.912 20.2837C70.5312 20.1648 70.1653 19.8253 69.7635 19.7975C69.4136 19.7738 69.1264 19.5896 68.7755 19.6015C68.3538 19.6164 67.8603 19.9708 67.4395 19.9876C67.0896 20.0015 67.1943 19.8767 66.7875 19.9807C66.5203 20.05 66.2411 19.6352 65.962 19.6005C65.625 19.5579 65.0278 20.1401 64.7556 19.948C64.4625 19.7411 64.1524 19.5272 63.8015 19.4322C63.5124 19.354 63.2163 19.3441 62.9182 19.3372C62.4067 19.3253 61.8624 19.3342 61.3948 19.0995C60.8494 18.8263 60.5693 18.2996 60.3409 17.763C60.1256 17.257 59.9402 16.6976 59.4985 16.3373C59.0997 16.0125 58.5434 15.9046 58.1954 15.5135C57.7847 15.0531 57.986 14.3888 58.335 13.9552C58.5075 13.7403 58.8036 13.5086 58.8036 13.2077C58.8036 12.9384 58.7876 12.5998 58.666 12.3532C58.4427 11.9018 58.0728 11.5166 57.9621 11.0226C57.8794 11.086 57.7797 11.0998 57.686 11.08C57.5424 11.3117 57.4586 11.584 57.4586 11.876C57.4586 12.4592 57.7896 12.9651 58.2752 13.2186C57.6321 13.5631 57.1954 14.2393 57.1954 15.0155C57.1954 16.1422 58.1157 17.057 59.2502 17.057C59.2762 17.057 59.3021 17.056 59.327 17.0551C59.2772 17.2749 59.2502 17.5026 59.2502 17.7372C59.2502 19.4421 60.642 20.8252 62.3599 20.8252C62.7925 20.8252 63.2043 20.7381 63.5782 20.5787C63.8912 21.3084 64.62 21.8192 65.4695 21.8192C66.1046 21.8192 66.6728 21.5331 67.0497 21.0836C67.2022 21.1193 67.3618 21.1391 67.5253 21.1391C68.2062 21.1391 68.8094 20.8104 69.1833 20.3035C69.7446 21.1084 70.6807 21.6361 71.7405 21.6361C73.4574 21.6361 74.8502 20.254 74.8502 18.5491C74.8502 18.4748 74.8462 18.4025 74.8412 18.3293C75.9887 17.8748 76.7993 16.762 76.7993 15.4611V15.4601Z" fill="#F8B2BB"/>
</g>
<path d="M60.0677 9.59886C60.0618 9.52164 60.0628 9.44441 60.0737 9.36818C60.0687 9.40184 60.0757 9.36026 60.0787 9.34739C60.0827 9.32759 60.0867 9.30779 60.0917 9.28699C60.1006 9.2464 60.1126 9.20581 60.1246 9.16621C60.1734 9.00978 60.2402 8.87513 60.3359 8.72266C60.5064 8.45039 60.7357 8.20386 61.0049 8.04842C61.2741 7.89298 61.0298 7.48904 60.7656 7.64151C60.4197 7.8415 60.1365 8.14941 59.9262 8.48504C59.7158 8.82067 59.5663 9.20779 59.5942 9.59787C59.6031 9.7246 59.6969 9.83351 59.8315 9.83351C59.9531 9.83351 60.0777 9.72559 60.0687 9.59787L60.0677 9.59886Z" fill="white"/>
<path d="M61.8274 11.2582C61.8155 11.2008 61.8125 11.1345 61.8195 11.0553C61.8215 11.0364 61.8215 11.0345 61.8195 11.0493C61.8215 11.0384 61.8235 11.0285 61.8254 11.0176C61.8284 11.0018 61.8324 10.9869 61.8364 10.9711C61.8454 10.9355 61.8574 10.8998 61.8713 10.8662C61.8623 10.8889 61.8863 10.8365 61.8883 10.8315C61.8952 10.8176 61.9032 10.8028 61.9112 10.7889C61.9301 10.7563 61.9501 10.7246 61.973 10.6939C61.979 10.685 61.986 10.6761 61.9929 10.6681C61.987 10.6761 61.987 10.6761 61.9929 10.6681C62.0049 10.6533 62.0179 10.6384 62.0308 10.6246C62.0568 10.5959 62.0847 10.5681 62.1126 10.5414C62.2173 10.4444 62.3419 10.3642 62.4865 10.2988C62.5353 10.2771 62.4605 10.3087 62.5104 10.2889C62.5303 10.281 62.5513 10.2731 62.5722 10.2662C62.6081 10.2533 62.644 10.2424 62.6809 10.2335C62.7138 10.2246 62.7477 10.2177 62.7816 10.2117C62.7875 10.2107 62.8394 10.2038 62.8085 10.2068C62.8284 10.2048 62.8494 10.2028 62.8693 10.2018C62.954 10.1959 63.0278 10.1335 63.0278 10.0444C63.0278 9.96421 62.955 9.88203 62.8693 9.88698C62.1495 9.93451 61.3658 10.5652 61.5224 11.3414C61.5393 11.4246 61.639 11.4721 61.7168 11.4513C61.8045 11.4275 61.8444 11.3414 61.8274 11.2582Z" fill="#0A369D"/>
<path d="M69.8582 6.14355C69.9519 6.15642 70.0457 6.17325 70.1374 6.199C70.1793 6.21088 70.2201 6.22375 70.26 6.2386C70.271 6.24256 70.281 6.24652 70.2909 6.25048C70.3298 6.26533 70.251 6.23266 70.278 6.24454C70.2979 6.25444 70.3188 6.26335 70.3388 6.27325C70.3767 6.29206 70.4135 6.31384 70.4494 6.33661C70.4684 6.34949 70.4873 6.36236 70.5053 6.37523C70.5392 6.39899 70.4734 6.34949 70.4963 6.36731C70.5053 6.37523 70.5142 6.38216 70.5232 6.38909C70.6 6.45344 70.6668 6.52671 70.7286 6.60492C70.7635 6.64947 70.8433 6.67423 70.8961 6.67423C70.9539 6.67423 71.0237 6.64848 71.0636 6.60492C71.1035 6.56136 71.1364 6.50097 71.1334 6.43859C71.1304 6.37226 71.1045 6.32473 71.0636 6.27226C70.933 6.10593 70.7675 5.96237 70.5771 5.86633C70.3866 5.7703 70.1902 5.71683 69.9838 5.68911C69.918 5.6802 69.8612 5.67822 69.8014 5.71287C69.7525 5.74159 69.7057 5.79703 69.6927 5.85346C69.6788 5.91386 69.6818 5.98118 69.7167 6.03464C69.7476 6.08217 69.7994 6.13464 69.8582 6.14256V6.14355Z" fill="white"/>
<path d="M64.6699 7.07818C64.6849 7.02274 64.7038 6.96928 64.7257 6.91581L64.7018 6.97225C64.7407 6.88116 64.7896 6.79602 64.8494 6.71681L64.8125 6.76433C64.8583 6.70592 64.9102 6.65345 64.968 6.6079L64.9202 6.64454C64.971 6.60592 65.0258 6.57325 65.0857 6.5485L65.0288 6.57226C65.0388 6.5683 65.0478 6.56434 65.0577 6.56137C65.1166 6.53959 65.1664 6.5089 65.1993 6.45345C65.2292 6.40296 65.2412 6.32871 65.2232 6.27227C65.1864 6.15941 65.0558 6.06139 64.9311 6.10792C64.8294 6.14554 64.7417 6.19208 64.657 6.25742C64.5722 6.32277 64.5044 6.39504 64.4396 6.48019C64.3329 6.61979 64.2592 6.78513 64.2123 6.95344C64.1794 7.07224 64.2532 7.21481 64.3778 7.24353C64.5024 7.27224 64.634 7.2059 64.6699 7.07917V7.07818Z" fill="white"/>
<path d="M73.1503 20.6153C73.7026 20.352 74.1603 19.8381 74.3128 19.2451C74.3437 19.1263 74.2739 18.9837 74.1473 18.955C74.0207 18.9263 73.8881 18.9916 73.8552 19.1193C73.8382 19.1847 73.8173 19.248 73.7934 19.3104C73.7774 19.353 73.8043 19.2876 73.7934 19.3134C73.7874 19.3272 73.7804 19.3411 73.7744 19.355C73.7595 19.3857 73.7445 19.4163 73.7286 19.4461C73.6977 19.5035 73.6628 19.5599 73.6249 19.6134C73.6139 19.6292 73.6029 19.6441 73.592 19.6589C73.588 19.6639 73.5561 19.7054 73.576 19.6797C73.596 19.654 73.5631 19.6955 73.5591 19.7005C73.5471 19.7153 73.5351 19.7292 73.5222 19.7441C73.4783 19.7946 73.4324 19.8421 73.3836 19.8876C73.3587 19.9114 73.3318 19.9351 73.3058 19.9569C73.2939 19.9668 73.2819 19.9777 73.2689 19.9876C73.251 20.0025 73.239 20.0114 73.265 19.9916C73.1553 20.0747 73.0366 20.147 72.911 20.2064C72.7994 20.2599 72.7605 20.4282 72.8263 20.5282C72.9001 20.642 73.0307 20.6698 73.1503 20.6123V20.6153Z" fill="white"/>
<path d="M56.7996 22.1331C56.0379 22.1331 55.353 21.6836 55.0539 20.9876C55.028 20.9282 54.9701 20.8925 54.9083 20.8925C54.8874 20.8925 54.8664 20.8965 54.8465 20.9054C54.4806 21.0608 54.0918 21.1391 53.69 21.1391C52.0629 21.1391 50.7389 19.8243 50.7389 18.2085C50.7389 17.9926 50.7638 17.7748 50.8117 17.561C50.8226 17.5134 50.8107 17.4639 50.7788 17.4263C50.7489 17.3907 50.704 17.3699 50.6571 17.3699C50.6552 17.3699 50.6532 17.3699 50.6512 17.3699C50.6272 17.3699 50.6043 17.3719 50.5804 17.3719C49.5345 17.3719 48.6831 16.5264 48.6831 15.4878C48.6831 14.7947 49.065 14.1591 49.6801 13.8294C49.7309 13.8017 49.7628 13.7482 49.7628 13.6908C49.7628 13.6324 49.7299 13.5799 49.6781 13.5532C49.2265 13.3166 48.9453 12.8552 48.9453 12.3493C48.9453 11.5988 49.5605 10.9889 50.3152 10.9889C50.3152 10.9889 50.3401 10.9889 50.3421 10.9889C50.387 10.9889 50.4348 10.9701 50.4647 10.9365C50.4956 10.9018 50.5146 10.8543 50.5076 10.8087C50.4847 10.6612 50.4737 10.5107 50.4737 10.3602C50.4737 8.74445 51.7977 7.42965 53.4248 7.42965C53.9761 7.42965 54.5145 7.58212 54.9821 7.87121C55.008 7.88705 55.0369 7.89498 55.0658 7.89498C55.0898 7.89498 55.1147 7.88903 55.1366 7.87814C55.1855 7.85339 55.2184 7.80488 55.2234 7.75043C55.3011 6.77818 56.1306 6.01682 57.1137 6.01682C57.4995 6.01682 57.8724 6.13167 58.1894 6.34949C58.2163 6.3683 58.2482 6.37721 58.2792 6.37721C58.321 6.37721 58.3619 6.36137 58.3928 6.32869C58.654 6.0594 59.004 5.91188 59.3788 5.91188C59.666 5.91188 59.9411 5.99999 60.1744 6.16533C60.2023 6.18513 60.2343 6.19504 60.2662 6.19504C60.2981 6.19504 60.329 6.18612 60.3559 6.16731C60.6739 5.94851 61.0468 5.83366 61.4336 5.83366C62.4795 5.83366 63.3309 6.67918 63.3309 7.71775C63.3309 7.75043 63.3309 7.78211 63.3289 7.81478C63.3269 7.85735 63.3429 7.89993 63.3718 7.93062C63.4017 7.96131 63.4426 7.97913 63.4864 7.97913C64.0178 7.97913 64.4894 8.27219 64.7217 8.74445C64.7456 8.79296 64.7935 8.82663 64.8473 8.83158C66.3558 8.98504 67.4943 10.2385 67.4943 11.7463C67.4943 12.3819 67.293 12.9859 66.9121 13.4948C66.8623 13.5611 66.8732 13.6542 66.936 13.7076C67.5921 14.266 67.9689 15.0769 67.9689 15.9333C67.9689 17.1402 67.2391 18.2085 66.1105 18.656C66.0467 18.6807 66.0068 18.7441 66.0118 18.8124C66.0178 18.8926 66.0198 18.9589 66.0198 19.0213C66.0198 20.6371 64.6958 21.9519 63.0687 21.9519C62.1006 21.9519 61.1934 21.4787 60.641 20.6866C60.6121 20.645 60.5643 20.6193 60.5134 20.6193H60.5114C60.4616 20.6193 60.4137 20.643 60.3838 20.6836C60.0269 21.1668 59.4546 21.4549 58.8534 21.4549C58.7069 21.4549 58.5593 21.4381 58.4147 21.4034C58.4028 21.4004 58.3908 21.3994 58.3779 21.3994C58.332 21.3994 58.2871 21.4202 58.2562 21.4559C57.8943 21.8876 57.3629 22.1351 56.7976 22.1351L56.7996 22.1331Z" fill="#F7ADC1"/>
<path d="M61.4376 5.98941C62.3967 5.98941 63.1763 6.76364 63.1763 7.71608C63.1763 7.74578 63.1763 7.77548 63.1744 7.80518C63.1704 7.89132 63.2023 7.97547 63.2621 8.03785C63.3219 8.10022 63.4057 8.13586 63.4924 8.13586C63.96 8.13586 64.3777 8.39526 64.5831 8.81307C64.631 8.91108 64.7267 8.97643 64.8353 8.98831C66.263 9.13385 67.3398 10.3199 67.3398 11.7466C67.3398 12.3476 67.1494 12.9199 66.7884 13.401C66.6887 13.5337 66.7107 13.7198 66.8363 13.8268C67.4574 14.3554 67.8134 15.1227 67.8134 15.9336C67.8134 17.0751 67.1224 18.087 66.0537 18.5107C65.9261 18.5612 65.8463 18.688 65.8553 18.8236C65.8602 18.9008 65.8632 18.9632 65.8632 19.0216C65.8632 20.5513 64.61 21.7958 63.0707 21.7958C62.1544 21.7958 61.296 21.3483 60.7726 20.5988C60.7148 20.5156 60.6191 20.4651 60.5174 20.4631C60.5164 20.4631 60.5144 20.4631 60.5134 20.4631C60.4127 20.4631 60.318 20.5107 60.2582 20.5919C59.9311 21.0344 59.4067 21.2988 58.8554 21.2988C58.7208 21.2988 58.5852 21.2829 58.4526 21.2522C58.4287 21.2463 58.4037 21.2433 58.3798 21.2433C58.2871 21.2433 58.1974 21.2839 58.1366 21.3562C57.8046 21.7522 57.317 21.9789 56.7996 21.9789C56.1017 21.9789 55.4736 21.5671 55.1994 20.9285C55.1486 20.8087 55.0309 20.7374 54.9083 20.7374C54.8674 20.7374 54.8245 20.7453 54.7847 20.7631C54.4387 20.9097 54.0698 20.9839 53.69 20.9839C52.1496 20.9839 50.8974 19.7394 50.8974 18.2108C50.8974 18.0058 50.9203 17.7999 50.9672 17.5979C50.9891 17.5029 50.9652 17.4029 50.9024 17.3276C50.8426 17.2553 50.7528 17.2147 50.6591 17.2147C50.6551 17.2147 50.6511 17.2147 50.6472 17.2147C50.6252 17.2147 50.6043 17.2167 50.5823 17.2167C49.6232 17.2167 48.8436 16.4425 48.8436 15.4901C48.8436 14.8544 49.1935 14.2723 49.7578 13.9693C49.8605 13.9139 49.9243 13.8069 49.9233 13.6911C49.9233 13.5753 49.8575 13.4693 49.7548 13.4149C49.3551 13.206 49.1068 12.7971 49.1068 12.3496C49.1068 11.6862 49.6502 11.1457 50.3191 11.1457C50.3241 11.1457 50.3291 11.1457 50.3341 11.1457H50.3441C50.3441 11.1457 50.351 11.1457 50.354 11.1457C50.4448 11.1457 50.5305 11.107 50.5903 11.0397C50.6531 10.9704 50.6801 10.8764 50.6661 10.7843C50.6442 10.6447 50.6332 10.5021 50.6332 10.3595C50.6332 8.8299 51.8864 7.58539 53.4258 7.58539C53.9482 7.58539 54.4577 7.72994 54.8993 8.0032C54.9502 8.03488 55.008 8.05072 55.0668 8.05072C55.1157 8.05072 55.1645 8.03983 55.2094 8.01706C55.3081 7.96755 55.3729 7.87053 55.3819 7.76162C55.4527 6.87056 56.2144 6.17257 57.1146 6.17257C57.4686 6.17257 57.8095 6.27751 58.1007 6.47751C58.1555 6.51513 58.2183 6.53295 58.2801 6.53295C58.3639 6.53295 58.4466 6.50028 58.5084 6.43692C58.7387 6.1993 59.0488 6.06762 59.3808 6.06762C59.635 6.06762 59.8783 6.14485 60.0847 6.29237C60.1395 6.33098 60.2043 6.35078 60.2691 6.35078C60.3339 6.35078 60.3947 6.33197 60.4486 6.29534C60.7397 6.09534 61.0817 5.98941 61.4356 5.98941M61.4356 5.67556C61.0019 5.67556 60.6001 5.80921 60.2681 6.03693C60.0179 5.85872 59.7118 5.75377 59.3798 5.75377C58.9471 5.75377 58.5573 5.93198 58.2791 6.2191C57.9481 5.99238 57.5463 5.85872 57.1136 5.85872C56.0339 5.85872 55.1496 6.68641 55.0658 7.73687C54.5893 7.44282 54.028 7.27154 53.4248 7.27154C51.708 7.27154 50.3152 8.65367 50.3152 10.3595C50.3152 10.5199 50.3271 10.6774 50.351 10.8318C50.3391 10.8318 50.3271 10.8318 50.3152 10.8318C49.4707 10.8318 48.7868 11.511 48.7868 12.3496C48.7868 12.9327 49.1178 13.4386 49.6033 13.6921C48.9602 14.0366 48.5236 14.7119 48.5236 15.4891C48.5236 16.6158 49.4438 17.5296 50.5784 17.5296C50.6043 17.5296 50.6302 17.5296 50.6551 17.5276C50.6053 17.7474 50.5784 17.9751 50.5784 18.2098C50.5784 19.9147 51.9702 21.2968 53.687 21.2968C54.1197 21.2968 54.5314 21.2087 54.9053 21.0503C55.2184 21.7799 55.9472 22.2908 56.7966 22.2908C57.4317 22.2908 57.999 22.0047 58.3768 21.5552C58.5294 21.5908 58.6889 21.6106 58.8524 21.6106C59.5333 21.6106 60.1365 21.2819 60.5104 20.775C61.0717 21.5799 62.0079 22.1076 63.0677 22.1076C64.7845 22.1076 66.1773 20.7255 66.1773 19.0196C66.1773 18.9454 66.1733 18.8731 66.1683 18.8008C67.3159 18.3464 68.1264 17.2336 68.1264 15.9326C68.1264 14.994 67.7037 14.1535 67.0387 13.5881C67.4235 13.0743 67.6518 12.4367 67.6518 11.7466C67.6518 10.1487 66.4295 8.83485 64.8633 8.67545C64.615 8.17052 64.0926 7.82201 63.4884 7.82201H63.4854C63.4874 7.78736 63.4884 7.75271 63.4884 7.71707C63.4884 6.59038 62.5682 5.67556 61.4336 5.67556H61.4356Z" fill="#0A369D"/>
<path d="M51.6352 13.5809C51.371 13.7185 51.0719 13.7839 50.7738 13.7809C50.4597 13.7779 50.1846 13.6789 49.9194 13.5166C49.6542 13.3542 49.4089 13.1463 49.2634 12.872C49.1397 12.6374 49.0959 12.3542 49.1357 12.0928C49.1487 12.0087 49.1148 11.9255 49.0251 11.8998C48.9503 11.879 48.8436 11.9255 48.8307 12.0097C48.7808 12.3394 48.8187 12.672 48.9623 12.976C49.1208 13.3106 49.4149 13.571 49.724 13.767C50.033 13.9631 50.365 14.0839 50.7339 14.0948C51.1028 14.1056 51.4697 14.0225 51.7937 13.8532C51.9742 13.7591 51.8147 13.4878 51.6342 13.5819L51.6352 13.5809Z" fill="#0A369D"/>
<path d="M50.4039 11.1434C50.5415 11.1424 50.6691 11.1275 50.7947 11.1543C50.9104 11.179 51.018 11.2137 51.1088 11.2602C51.1576 11.285 51.2055 11.3137 51.2494 11.3454C51.2583 11.3513 51.2583 11.3513 51.2494 11.3454L51.2613 11.3553C51.2733 11.3652 51.2852 11.3761 51.2972 11.3869C51.3162 11.4048 51.3351 11.4236 51.352 11.4434C51.354 11.4463 51.379 11.4761 51.37 11.4642C51.361 11.4523 51.3839 11.483 51.3849 11.486C51.3999 11.5077 51.4129 11.5305 51.4248 11.5533C51.4428 11.5869 51.4607 11.6404 51.4737 11.6998C51.4916 11.783 51.5893 11.8305 51.6681 11.8097C51.7548 11.7859 51.7967 11.6998 51.7788 11.6166C51.7209 11.3434 51.5265 11.1266 51.2823 10.9969C51.1586 10.9315 51.024 10.884 50.8864 10.8533C50.8087 10.8365 50.7289 10.8226 50.6492 10.8216C50.5694 10.8206 50.4847 10.8285 50.4029 10.8295C50.1995 10.8315 50.1995 11.1454 50.4029 11.1434H50.4039Z" fill="#0A369D"/>
<path d="M56.2363 9.50086C55.7937 9.43651 55.5205 8.98603 55.4208 8.58901C55.3021 8.11774 55.364 7.61479 55.5464 7.16827C55.6222 6.98115 55.3171 6.89996 55.2413 7.0851C55.03 7.60489 54.9771 8.20784 55.1366 8.7494C55.2742 9.21473 55.6341 9.72857 56.1526 9.80382C56.2373 9.81669 56.3211 9.78303 56.347 9.69392C56.3679 9.62066 56.3211 9.51274 56.2363 9.50086Z" fill="#0A369D"/>
<path d="M58.0758 6.46632C58.1536 6.5485 58.2363 6.62671 58.3111 6.71186C58.3859 6.797 58.4337 6.88611 58.4796 6.98413C58.5753 7.18511 58.6411 7.40688 58.662 7.62866C58.67 7.71281 58.7288 7.78608 58.8205 7.78608C58.9003 7.78608 58.987 7.7138 58.9791 7.62866C58.9531 7.3554 58.8784 7.09501 58.7637 6.84651C58.7079 6.72572 58.6421 6.61681 58.5563 6.51484C58.4766 6.41979 58.3859 6.33464 58.3001 6.24455C58.1605 6.09703 57.9372 6.31979 58.0768 6.46632H58.0758Z" fill="#0A369D"/>
<path d="M61.6241 8.46921C61.9341 8.56426 62.2741 8.54644 62.5862 8.46921C62.8982 8.39199 63.2063 8.27714 63.4296 8.04547C63.5702 7.89894 63.3469 7.67716 63.2063 7.82369C63.0198 8.01676 62.7566 8.10388 62.5024 8.16724C62.2482 8.23061 61.966 8.24645 61.7078 8.16724C61.5134 8.10784 61.4296 8.4108 61.6241 8.4702V8.46921Z" fill="#0A369D"/>
<path d="M64.5891 8.8098C64.8413 9.34048 64.5123 9.87412 64.2132 10.3058C64.1644 10.3761 64.2002 10.48 64.27 10.5206C64.3488 10.5662 64.4375 10.5345 64.4864 10.4642C64.6718 10.1979 64.8493 9.91669 64.94 9.60284C65.0307 9.28899 65.0068 8.95435 64.8622 8.65139C64.8254 8.57516 64.7147 8.55536 64.6459 8.59496C64.5671 8.6405 64.5522 8.73258 64.5891 8.8098Z" fill="#0A369D"/>
<path d="M64.7247 13.374C64.976 13.6492 65.3658 13.8264 65.7317 13.8878C66.1624 13.9611 66.5841 13.868 66.967 13.667C67.1464 13.572 66.9869 13.3017 66.8075 13.3958C66.4934 13.5611 66.1335 13.6462 65.7796 13.5779C65.4755 13.5195 65.1594 13.3819 64.9491 13.1512C64.8115 13.0017 64.5892 13.2235 64.7257 13.373L64.7247 13.374Z" fill="#0A369D"/>
<path d="M55.4954 21.3975C55.1844 21.0064 55.0797 20.5074 55.2322 20.0312C55.3578 19.6391 55.641 19.2946 56.0198 19.1203C56.2043 19.0352 56.0438 18.7649 55.8603 18.849C55.4007 19.0599 55.0597 19.5015 54.9182 19.9787C54.7447 20.5609 54.8992 21.1499 55.2721 21.6192C55.3977 21.7776 55.621 21.5539 55.4954 21.3975Z" fill="#0A369D"/>
<path d="M57.9071 21.9806C58.1195 21.8291 58.303 21.6371 58.4166 21.4014C58.5303 21.1658 58.5771 20.9044 58.5652 20.642C58.5612 20.5569 58.4954 20.4846 58.4066 20.4846C58.3239 20.4846 58.2441 20.5569 58.2481 20.642C58.2511 20.6995 58.2511 20.7579 58.2481 20.8153C58.2451 20.8777 58.2411 20.9054 58.2322 20.9569C58.2232 21.0084 58.2092 21.0628 58.1923 21.1153C58.1753 21.1678 58.1604 21.2064 58.1434 21.243C58.0517 21.4351 57.9161 21.5895 57.7476 21.7103C57.6788 21.7598 57.6449 21.847 57.6908 21.9252C57.7307 21.9935 57.8374 22.0311 57.9071 21.9816V21.9806Z" fill="#0A369D"/>
<path d="M60.284 19.5995C60.2481 19.9599 60.284 20.3213 60.4505 20.648C60.632 21.0034 60.944 21.2796 61.2561 21.5202C61.3239 21.5717 61.4136 21.5856 61.4794 21.5202C61.5342 21.4658 61.5472 21.3509 61.4794 21.2984C61.1933 21.0777 60.9041 20.8321 60.7327 20.5084C60.5841 20.2262 60.5692 19.9104 60.6001 19.5995C60.608 19.5153 60.5213 19.4421 60.4415 19.4421C60.3488 19.4421 60.292 19.5144 60.283 19.5995H60.284Z" fill="#0A369D"/>
<path d="M50.9064 18.3827C50.9024 17.9857 50.9303 17.5728 51.0918 17.2045C51.2344 16.8798 51.4757 16.6234 51.7479 16.4006C51.9054 16.2719 51.6801 16.0511 51.5245 16.1788C51.2264 16.4234 50.9652 16.7135 50.8087 17.0689C50.6272 17.4827 50.5864 17.9362 50.5903 18.3827C50.5923 18.5847 50.9084 18.5847 50.9064 18.3827Z" fill="#0A369D"/>
<path d="M66.1673 19.2619C66.1643 18.9441 66.1812 18.6233 66.1314 18.3085C66.0815 17.9936 65.9409 17.7214 65.7505 17.4758C65.6987 17.4085 65.6149 17.3729 65.5342 17.4194C65.4674 17.458 65.4255 17.5669 65.4773 17.6342C65.6538 17.8619 65.7834 18.1065 65.8263 18.3926C65.8692 18.6788 65.8482 18.9748 65.8502 19.2629C65.8522 19.4649 66.1683 19.4649 66.1663 19.2629L66.1673 19.2619Z" fill="#0A369D"/>
<g style="mix-blend-mode:multiply">
<path d="M50.8355 8.8613C51.2762 8.5722 51.7727 8.31478 52.2891 8.19003C52.8624 8.05142 53.4466 8.04053 54.0329 8.00291C54.5663 7.96925 55.1595 7.94252 55.6321 7.6653C56.0737 7.40689 56.4665 7.03859 57.0169 7.06928C57.307 7.08512 57.6161 7.19007 57.9022 7.10492C58.1026 7.04552 58.2801 6.94651 58.4605 6.84157C58.8513 6.61286 59.2352 6.42871 59.6988 6.42673C60.3229 6.42475 61.0268 6.35148 61.624 6.57227C62.2381 6.79899 62.5093 7.26333 62.6509 7.87024C62.6818 8.00291 62.7296 8.4623 62.8832 8.51081C63.0995 8.57913 63.3318 8.56824 63.5472 8.64051C63.7127 8.69596 63.8822 8.77219 64.0028 8.90288C64.0865 8.99297 64.1494 9.10287 64.2361 9.19C64.4395 9.39692 64.7575 9.35831 65.0267 9.38999C65.6947 9.46821 66.26 9.92363 66.6339 10.4593C67.0486 11.0543 67.245 11.6869 67.1174 12.4067C67.0516 12.776 67.0207 13.0879 67.1363 13.4522C67.4644 12.9631 67.6568 12.375 67.6568 11.7434C67.6568 10.1454 66.4345 8.83159 64.8682 8.67219C64.6199 8.16726 64.0975 7.81876 63.4933 7.81876H63.4903C63.4923 7.78411 63.4933 7.74945 63.4933 7.71381C63.4933 6.58712 62.5731 5.6723 61.4385 5.6723C61.0048 5.6723 60.6031 5.80596 60.2711 6.03367C60.0208 5.85546 59.7147 5.75052 59.3827 5.75052C58.95 5.75052 58.5602 5.92873 58.2821 6.21585C57.9511 5.98912 57.5493 5.85546 57.1166 5.85546C56.0368 5.85546 55.1525 6.68316 55.0688 7.73361C54.5922 7.43956 54.0309 7.26828 53.4277 7.26828C52.2014 7.26828 51.1406 7.97321 50.6351 8.99793C50.7009 8.9504 50.7677 8.90288 50.8355 8.85833V8.8613Z" fill="#F8B2BB"/>
</g>
<g style="mix-blend-mode:multiply">
<path d="M68.1305 15.9323C68.1305 15.0977 67.7955 14.3413 67.2541 13.7859C67.3379 14.0066 67.4246 14.2284 67.4744 14.4581C67.615 15.1116 67.5542 15.8294 67.3708 16.4689C67.1833 17.1214 66.8523 17.6224 66.3787 18.1055C66.1614 18.3273 65.9401 18.55 65.8095 18.8352C65.6729 19.1332 65.9261 19.4688 65.8125 19.7748C65.6978 20.0807 65.2103 20.3312 64.9092 20.4688C64.651 20.5876 64.4187 20.7411 64.1644 20.8648C63.5533 21.1628 62.8574 20.946 62.2432 20.7549C61.8614 20.6361 61.4865 20.5163 61.0847 20.4896C60.7348 20.4658 60.3848 20.4757 60.0339 20.4886C59.6122 20.5034 59.1914 20.443 58.7707 20.4599C58.4208 20.4737 58.1017 20.5727 57.7737 20.6876C57.5125 20.7787 57.2463 20.8559 56.9671 20.8203C56.6302 20.7777 56.359 20.6114 56.0868 20.4193C55.7937 20.2124 55.4836 19.9985 55.1327 19.9035C54.8436 19.8252 54.5474 19.8153 54.2493 19.8084C53.7379 19.7965 53.1935 19.8054 52.7259 19.5708C52.1806 19.2975 51.9014 18.7708 51.6721 18.2342C51.4568 17.7283 51.2713 17.1689 50.8297 16.8085C50.4309 16.4838 49.8745 16.3759 49.5266 15.9848C49.1158 15.5244 49.3172 14.8601 49.6662 14.4264C49.8387 14.2116 50.1348 13.9799 50.1348 13.6789C50.1348 13.4096 50.1188 13.071 49.9972 12.8245C49.7738 12.373 49.405 11.9879 49.2933 11.4939C49.2105 11.5572 49.1108 11.5711 49.0171 11.5513C48.8736 11.783 48.7898 12.0552 48.7898 12.3473C48.7898 12.9304 49.1208 13.4364 49.6064 13.6898C48.9633 14.0344 48.5266 14.7096 48.5266 15.4868C48.5266 16.6135 49.4468 17.5273 50.5814 17.5273C50.6073 17.5273 50.6333 17.5273 50.6582 17.5253C50.6083 17.7451 50.5814 17.9728 50.5814 18.2075C50.5814 19.9124 51.9732 21.2945 53.69 21.2945C54.1227 21.2945 54.5345 21.2064 54.9084 21.048C55.2214 21.7777 55.9502 22.2885 56.7996 22.2885C57.4347 22.2885 58.002 22.0024 58.3799 21.5529C58.5324 21.5886 58.6919 21.6084 58.8554 21.6084C59.5364 21.6084 60.1396 21.2797 60.5134 20.7727C61.0747 21.5777 62.0109 22.1054 63.0707 22.1054C64.7875 22.1054 66.1803 20.7232 66.1803 19.0174C66.1803 18.9431 66.1764 18.8708 66.1714 18.7986C67.3189 18.3441 68.1295 17.2313 68.1295 15.9303L68.1305 15.9323Z" fill="#F8B2BB"/>
</g>
<path d="M51.3989 10.0711C51.3929 9.99392 51.3939 9.91669 51.4049 9.84046C51.3999 9.87412 51.4069 9.83254 51.4099 9.81967C51.4139 9.79987 51.4179 9.78007 51.4228 9.75927C51.4318 9.71868 51.4438 9.67809 51.4557 9.63849C51.5046 9.48206 51.5714 9.34741 51.6671 9.19494C51.8376 8.92267 52.0669 8.67615 52.3361 8.52071C52.6053 8.36527 52.361 7.96132 52.0968 8.11379C51.7509 8.31378 51.4677 8.62169 51.2573 8.95732C51.047 9.29296 50.8974 9.68007 50.9253 10.0702C50.9343 10.1969 51.028 10.3058 51.1626 10.3058C51.2843 10.3058 51.4089 10.1979 51.3999 10.0702L51.3989 10.0711Z" fill="white"/>
<path d="M63.292 21.4183C64.0477 21.25 64.7984 20.9351 65.1992 20.2371C65.3508 19.9738 64.941 19.7362 64.7895 19.9995C64.625 20.2856 64.4026 20.4856 64.1095 20.644C63.8164 20.8025 63.5024 20.8896 63.1664 20.9638C63.0417 20.9916 62.968 21.1351 63.0009 21.2539C63.0358 21.3816 63.1674 21.446 63.293 21.4183H63.292Z" fill="white"/>
<path d="M53.1586 11.7295C53.1467 11.6721 53.1437 11.6057 53.1506 11.5265C53.1526 11.5077 53.1526 11.5057 53.1506 11.5206C53.1526 11.5097 53.1546 11.4998 53.1566 11.4889C53.1596 11.4731 53.1636 11.4582 53.1676 11.4424C53.1766 11.4067 53.1885 11.3711 53.2025 11.3374C53.1925 11.3602 53.2174 11.3077 53.2194 11.3028C53.2264 11.2889 53.2344 11.2741 53.2424 11.2602C53.2613 11.2275 53.2812 11.1959 53.3042 11.1652C53.3102 11.1563 53.3171 11.1473 53.3241 11.1394C53.3181 11.1473 53.3181 11.1473 53.3241 11.1394C53.3361 11.1246 53.349 11.1097 53.362 11.0959C53.3879 11.0671 53.4158 11.0394 53.4438 11.0127C53.5484 10.9157 53.6731 10.8355 53.8176 10.7701C53.8665 10.7483 53.7917 10.78 53.8416 10.7602C53.8615 10.7523 53.8824 10.7444 53.9034 10.7375C53.9393 10.7246 53.9752 10.7137 54.012 10.7048C54.0449 10.6959 54.0788 10.6889 54.1127 10.683C54.1187 10.682 54.1706 10.6751 54.1397 10.6781C54.1596 10.6761 54.1805 10.6741 54.2005 10.6731C54.2852 10.6672 54.359 10.6048 54.359 10.5157C54.359 10.4355 54.2862 10.3533 54.2005 10.3583C53.4806 10.4058 52.697 11.0365 52.8535 11.8127C52.8705 11.8958 52.9702 11.9434 53.048 11.9226C53.1357 11.8988 53.1756 11.8127 53.1586 11.7295Z" fill="#0A369D"/>
<path d="M61.2672 13.9804C61.2672 14.6616 60.7143 15.2146 60.033 15.2146C59.3518 15.2146 58.7988 14.6616 58.7988 13.9804C58.7988 13.2992 59.3518 12.7462 60.033 12.7462C60.7143 12.7462 61.2672 13.2992 61.2672 13.9804Z" fill="#0A369D"/>
<path d="M73.2297 13.9804C73.2297 14.6616 72.6767 15.2146 71.9954 15.2146C71.3142 15.2146 70.7612 14.6616 70.7612 13.9804C70.7612 13.2992 71.3142 12.7462 71.9954 12.7462C72.6767 12.7462 73.2297 13.2992 73.2297 13.9804Z" fill="#0A369D"/>
<path d="M59.2158 14.2224C59.1982 14.1971 59.2011 14.2034 59.1904 14.1781C59.1855 14.1675 59.1815 14.1559 59.1776 14.1453C59.1757 14.139 59.1668 14.1115 59.1757 14.1411C59.1688 14.1168 59.1639 14.0925 59.159 14.0682C59.1521 14.0376 59.1639 14.1052 59.159 14.0671C59.158 14.0566 59.156 14.046 59.1541 14.0344C59.1521 14.0217 59.1511 14.0101 59.1492 13.9974C59.1472 13.9816 59.1492 13.9361 59.1492 14.0006C59.1492 13.9784 59.1482 13.9573 59.1492 13.9351C59.1492 13.9182 59.157 13.8727 59.1492 13.9414C59.1502 13.9308 59.1511 13.9203 59.1521 13.9097C59.1531 13.8991 59.1551 13.8886 59.156 13.878C59.1502 13.9404 59.1521 13.8991 59.156 13.8822C59.159 13.8706 59.1629 13.8601 59.1649 13.8484C59.156 13.896 59.157 13.8717 59.1619 13.8579C59.1659 13.8474 59.1698 13.8368 59.1747 13.8262C59.1766 13.821 59.1796 13.8157 59.1815 13.8115C59.1884 13.7977 59.1864 13.8019 59.1757 13.8231C59.1757 13.8125 59.1992 13.784 59.206 13.7755C59.2129 13.7671 59.2188 13.7586 59.2256 13.7502C59.2296 13.7459 59.2541 13.7174 59.2325 13.7417C59.2433 13.7301 59.2541 13.7195 59.2649 13.7079C59.2688 13.7037 59.2727 13.6984 59.2766 13.6942C59.2629 13.7079 59.2668 13.7037 59.2884 13.6815C59.2952 13.673 59.3149 13.6318 59.308 13.6413C59.3227 13.6213 59.3364 13.6086 59.3472 13.5843C59.3854 13.4987 59.3796 13.3349 59.2688 13.3286L59.3041 13.3519C59.2707 13.3128 59.2502 13.3075 59.206 13.3265C59.1894 13.3339 59.1776 13.3434 59.1639 13.3561C59.1217 13.3973 59.0923 13.4438 59.0668 13.4987C59.0129 13.616 58.9943 13.7512 58.9894 13.8801C58.9825 14.0872 59.0306 14.308 59.1786 14.4485C59.2109 14.4792 59.2354 14.3936 59.2384 14.3767C59.2462 14.3292 59.2462 14.2637 59.2178 14.2224H59.2158Z" fill="white"/>
<path d="M71.255 14.2137C71.2217 14.1843 71.1884 14.1521 71.1648 14.1159C71.1573 14.1032 71.1498 14.0856 71.1423 14.071C71.139 14.0631 71.1358 14.0543 71.1401 14.068C71.1358 14.0563 71.1337 14.0455 71.1294 14.0338C71.124 14.0162 71.1272 14.027 71.1294 14.0387C71.1272 14.0289 71.1262 14.0201 71.124 14.0103C71.124 14.0084 71.1197 13.982 71.1208 13.982C71.1208 13.982 71.1208 14.026 71.1208 13.9879C71.1208 13.9849 71.124 13.9615 71.1208 13.9595C71.1262 13.9634 71.1154 14.0025 71.1208 13.9664C71.1219 13.9566 71.1229 13.9478 71.1251 13.938C71.1251 13.9322 71.1315 13.8989 71.1272 13.9253C71.123 13.9517 71.1305 13.9155 71.1305 13.9126C71.1326 13.9048 71.1348 13.897 71.1369 13.8901C71.1401 13.8813 71.1433 13.8715 71.1455 13.8618C71.1498 13.8442 71.1348 13.8862 71.1455 13.8598C71.1616 13.8227 71.1788 13.7865 71.1992 13.7513C71.2099 13.7327 71.2195 13.7142 71.2303 13.6966C71.2453 13.6702 71.2485 13.6741 71.2635 13.6399L71.2764 13.6047L71.2657 13.6262C71.2657 13.6262 71.2861 13.5939 71.2882 13.591C71.3076 13.5578 71.3161 13.5138 71.3226 13.4894C71.3355 13.4454 71.3419 13.3369 71.2764 13.3222C71.2507 13.3163 71.2432 13.3095 71.2152 13.3271C71.211 13.33 71.1755 13.3564 71.1906 13.3467C71.1777 13.3545 71.1648 13.3623 71.1541 13.374C71.1154 13.4131 71.0854 13.462 71.0607 13.5099C71.007 13.6125 70.9695 13.7279 70.9566 13.8422C70.9319 14.0729 70.9877 14.3075 71.2034 14.4492C71.2464 14.4776 71.2732 14.3955 71.2775 14.374C71.2861 14.33 71.2915 14.2469 71.2517 14.2127L71.255 14.2137Z" fill="white"/>
<path d="M64.3108 12.7991C64.3108 12.7991 64.2206 11.2296 64.7798 9.94428C64.9109 9.64326 64.9642 9.43432 64.9673 9.25509C64.9714 8.98278 64.8433 8.68176 64.8433 8.68176C65.2356 8.21438 67.4519 9.36699 67.5369 9.09369C67.5369 9.09369 70.5141 17.058 68.601 18.4166C66.6879 19.7751 65.4793 20.0019 64.9744 18.7988C64.4695 17.5947 64.3118 12.7991 64.3118 12.7991H64.3108Z" fill="#F7ADC1"/>
<path d="M58.5288 12.9177C58.526 12.8979 58.526 12.8968 58.5279 12.9136C58.5269 12.9031 58.526 12.8926 58.525 12.8811C58.5241 12.8654 58.5232 12.8497 58.5232 12.833C58.5232 12.7964 58.5241 12.7597 58.5279 12.7231C58.525 12.7524 58.5288 12.7147 58.5307 12.7064C58.5335 12.6886 58.5372 12.6708 58.541 12.6541C58.5485 12.6216 58.5579 12.5902 58.5673 12.5588C58.5738 12.541 58.5738 12.54 58.5673 12.5557C58.5701 12.5484 58.5729 12.5421 58.5757 12.5348C58.5823 12.5191 58.5898 12.5034 58.5973 12.4877C58.6114 12.4584 58.6273 12.4312 58.6433 12.404C58.647 12.3977 58.6508 12.3914 58.6555 12.3851C58.6461 12.3987 58.6461 12.3977 58.6573 12.383C58.6658 12.3715 58.6742 12.36 58.6836 12.3485C58.7042 12.3223 58.7268 12.2983 58.7502 12.2753C58.7559 12.27 58.7821 12.246 58.7615 12.2637C58.7756 12.2512 58.7906 12.2407 58.8056 12.2292C58.8281 12.2135 58.8516 12.1978 58.875 12.1853C58.8806 12.1821 58.9304 12.1591 58.9003 12.1717C58.9125 12.1664 58.9257 12.1612 58.9379 12.157C58.9679 12.1465 58.9979 12.1392 59.0289 12.1319C59.0599 12.1246 59.0073 12.1319 59.043 12.1298C59.057 12.1298 59.0702 12.1277 59.0842 12.1267C59.1171 12.1256 59.149 12.1267 59.1818 12.1309C59.1518 12.1277 59.1997 12.135 59.2062 12.1361C59.2231 12.1403 59.24 12.1445 59.256 12.1497C59.27 12.1539 59.285 12.1591 59.2991 12.1654C59.3085 12.1696 59.3188 12.1727 59.3282 12.1779C59.3169 12.1727 59.3188 12.1738 59.3357 12.1821C59.4089 12.2198 59.4962 12.2051 59.5393 12.1225C59.5768 12.0513 59.559 11.9331 59.4858 11.8954C59.3188 11.8096 59.1452 11.7761 58.9632 11.8096C58.8093 11.8379 58.6686 11.9205 58.5504 12.0314C58.297 12.269 58.1891 12.6457 58.2426 13.0046C58.2558 13.0935 58.3543 13.1427 58.4256 13.1207C58.51 13.0946 58.5429 13.0056 58.5297 12.9167L58.5288 12.9177Z" fill="#0A369D"/>
<path d="M72.3408 11.526C72.3502 11.522 72.3596 11.518 72.369 11.5149C72.3752 11.5125 72.4139 11.503 72.3867 11.5077C72.3596 11.5125 72.3941 11.5053 72.4003 11.5037C72.4118 11.5006 72.4223 11.4974 72.4338 11.495C72.4526 11.4902 72.4725 11.4863 72.4913 11.4831C72.5007 11.4815 72.5101 11.4807 72.5205 11.4791C72.555 11.4736 72.4798 11.4815 72.5153 11.4791C72.555 11.4768 72.5937 11.4791 72.6334 11.4791C72.6502 11.4791 72.5895 11.4728 72.6261 11.4791C72.6366 11.4807 72.647 11.4823 72.6575 11.4839C72.6752 11.4871 72.693 11.491 72.7097 11.4958C72.7254 11.4998 72.7401 11.5101 72.7035 11.4934C72.7108 11.4966 72.7202 11.499 72.7275 11.5022C72.7432 11.5085 72.7589 11.5157 72.7745 11.5228C72.7798 11.5252 72.785 11.5284 72.7892 11.5307C72.7693 11.5188 72.7641 11.5157 72.7735 11.5212C72.7798 11.526 72.7871 11.5299 72.7944 11.5347C72.809 11.545 72.8226 11.5561 72.8362 11.5681C72.8561 11.5855 72.8153 11.5442 72.8331 11.5657C72.8383 11.572 72.8435 11.5776 72.8488 11.5839C72.8592 11.5966 72.8676 11.6101 72.877 11.6236C72.8927 11.6466 72.8665 11.599 72.877 11.6228C72.8801 11.6308 72.8843 11.6379 72.8874 11.6459C72.8948 11.6649 72.901 11.684 72.9063 11.7038C72.923 11.7689 73.0296 11.8118 73.1101 11.7919C73.201 11.7697 73.2428 11.7062 73.2261 11.6371C73.1822 11.4601 73.0275 11.3196 72.8059 11.2568C72.5989 11.1981 72.3617 11.2322 72.1725 11.31C72.0962 11.3418 72.0658 11.4259 72.1129 11.4823C72.1599 11.5387 72.2582 11.5609 72.3397 11.5276L72.3408 11.526Z" fill="#0A369D"/>
<path d="M65.4755 17.7159C65.6301 17.9036 65.7563 18.1051 65.8162 18.3371C65.8719 18.5553 65.8698 18.7823 65.8698 19.0054C65.8698 19.371 65.8572 19.7671 65.6848 20.1042C65.5922 20.2841 65.8793 20.4423 65.9729 20.2615C66.1727 19.8722 66.2032 19.429 66.2042 19.0054C66.2042 18.7597 66.2021 18.51 66.1432 18.2683C66.078 18.0058 65.9392 17.7709 65.7657 17.5587C65.6375 17.4014 65.3473 17.5567 65.4776 17.7159H65.4755Z" fill="#0A369D"/>
<path d="M65.0649 15.6681C65.0669 15.888 65.1068 16.1184 65.2275 16.3076C65.3482 16.4967 65.5381 16.6408 65.7581 16.6993C66.1456 16.8021 66.5963 16.6715 66.83 16.3421C66.8942 16.2519 66.9302 16.1434 66.9458 16.0349C66.9682 15.8803 66.975 15.7257 66.9341 15.5731C66.9039 15.4578 66.7676 15.3762 66.6489 15.4137C66.5301 15.4511 66.4542 15.5711 66.4873 15.695C66.4902 15.7046 66.5019 15.7853 66.498 15.7411C66.5009 15.7718 66.5019 15.8025 66.5009 15.8342C66.4999 15.8659 66.498 15.8966 66.4951 15.9283C66.4921 15.9562 66.4912 15.959 66.4951 15.936C66.4931 15.9504 66.4902 15.9648 66.4873 15.9792C66.4824 16.0003 66.4756 16.0205 66.4707 16.0416C66.462 16.0647 66.4639 16.0618 66.4766 16.0311C66.4727 16.0407 66.4678 16.0503 66.4629 16.0589C66.4532 16.0771 66.4415 16.0944 66.4298 16.1117C66.4152 16.1319 66.4172 16.128 66.4376 16.1021C66.4308 16.1098 66.424 16.1175 66.4172 16.1252C66.4026 16.1405 66.387 16.154 66.3714 16.1684C66.3519 16.1837 66.3549 16.1818 66.3812 16.1616C66.3724 16.1684 66.3636 16.1741 66.3549 16.1799C66.3373 16.1914 66.3179 16.2029 66.2994 16.2125C66.2877 16.2192 66.2195 16.2471 66.2809 16.224C66.239 16.2404 66.1972 16.2538 66.1543 16.2634C66.1349 16.2682 66.1086 16.2769 66.0881 16.2759C66.1533 16.2797 66.0823 16.2759 66.0667 16.2759C66.0356 16.2778 65.9606 16.2884 65.9333 16.2721C65.9674 16.2769 65.9713 16.2778 65.946 16.273C65.9353 16.2711 65.9246 16.2692 65.9139 16.2663C65.8924 16.2615 65.872 16.2557 65.8506 16.25C65.836 16.2452 65.7737 16.2144 65.8311 16.2442C65.8126 16.2346 65.7931 16.226 65.7746 16.2154C65.7669 16.2106 65.6977 16.1616 65.7347 16.1914C65.7143 16.1751 65.6938 16.1568 65.6753 16.1376C65.6676 16.13 65.6199 16.0666 65.6491 16.1088C65.6345 16.0877 65.6208 16.0666 65.6082 16.0445C65.6033 16.0359 65.5702 15.9619 65.5906 16.0128C65.5809 15.9888 65.5722 15.9648 65.5653 15.9398C65.5585 15.9149 65.5517 15.8899 65.5459 15.864C65.5439 15.8534 65.5313 15.7709 65.5381 15.8275C65.5322 15.7747 65.5293 15.7209 65.5293 15.6672C65.5293 15.5481 65.4232 15.4329 65.2976 15.4386C65.172 15.4444 65.0649 15.5395 65.0659 15.6672L65.0649 15.6681Z" fill="#0A369D"/>
<g style="mix-blend-mode:multiply">
<path d="M61.4017 15.4417C61.1125 15.4478 60.8452 15.5586 60.571 15.6393C60.3725 15.6968 60.212 15.6746 60.0155 15.6322C59.5977 15.5415 59.1698 15.3853 58.736 15.4064C58.1526 15.4347 57.6231 16.1171 57.9492 16.6726C58.2523 17.1887 58.8926 17.4901 59.474 17.4931C59.7752 17.4941 60.0624 17.4276 60.3536 17.353C60.7096 17.2613 61.0766 17.2966 61.4356 17.222C61.8754 17.1302 62.3711 16.7925 62.405 16.2996C62.4409 15.7764 61.8625 15.4326 61.4017 15.4417Z" fill="#F8B2BB"/>
</g>
<g style="mix-blend-mode:multiply">
<path d="M73.9102 15.2156C73.6248 15.1998 73.3475 15.3719 73.0855 15.4626C72.7644 15.5735 72.4229 15.5471 72.0937 15.4996C71.6696 15.4384 71.2221 15.2895 70.7929 15.3539C70.323 15.4257 70.1222 15.8268 70.2129 16.2743C70.325 16.8253 70.8755 17.2021 71.3974 17.2803C71.9642 17.3647 72.5809 17.2032 73.1151 17.0153C73.6074 16.8422 74.1436 16.5762 74.4484 16.1223C74.7563 15.6642 74.3699 15.2399 73.9112 15.2146L73.9102 15.2156Z" fill="#F8B2BB"/>
</g>
<path d="M52.8203 15.0855C53.4783 14.593 54.2953 15.4649 54.4736 16.0281C54.6079 16.4527 54.3752 16.8282 54.1907 17.2027C53.9703 17.649 53.8955 18.1041 54.1128 18.567C54.3465 19.0673 54.8518 19.3652 55.4146 19.3917C55.6237 19.4015 55.6226 19.09 55.4146 19.0801C54.9164 19.0565 54.4941 18.7518 54.3496 18.2898C54.1917 17.7856 54.4828 17.3806 54.6827 16.9354C54.7801 16.7191 54.859 16.4832 54.8436 16.2453C54.8313 16.0566 54.7719 15.8767 54.6889 15.7057C54.5146 15.345 54.2174 15.0157 53.8586 14.8152C53.4435 14.5822 52.9751 14.5783 52.5897 14.8663C52.4246 14.9892 52.6563 15.2084 52.8193 15.0865L52.8203 15.0855Z" fill="#0A369D"/>
<path d="M54.6487 16.8636C54.6637 16.8607 54.6788 16.8567 54.695 16.8548C54.7004 16.8548 54.7068 16.8528 54.7122 16.8519C54.7252 16.8499 54.7198 16.8509 54.695 16.8538C54.6993 16.8587 54.7607 16.8499 54.7715 16.8499C54.7855 16.8499 54.7995 16.8499 54.8135 16.8519C54.8286 16.8528 54.8544 16.8626 54.8092 16.8509C54.8318 16.8567 54.8566 16.8587 54.8792 16.8646C54.9018 16.8705 54.9234 16.8802 54.946 16.8851C54.9062 16.8763 54.9266 16.8773 54.9417 16.8851C54.9536 16.89 54.9654 16.8959 54.9762 16.9018C54.9945 16.9116 55.0117 16.9233 55.0301 16.9331C55.0408 16.94 55.0354 16.936 55.015 16.9223C55.0204 16.9263 55.0247 16.9302 55.0301 16.9341C55.0387 16.9409 55.0473 16.9478 55.0559 16.9546C55.0721 16.9683 55.0861 16.9821 55.1001 16.9967C55.1044 17.0016 55.1087 17.0056 55.113 17.0104C55.1238 17.0232 55.1216 17.0202 55.1044 17.0007C55.1076 17.0075 55.1173 17.0163 55.1216 17.0232C55.1346 17.0408 55.1475 17.0594 55.1583 17.078C55.1637 17.0878 55.169 17.0966 55.1744 17.1064C55.1809 17.1191 55.1874 17.1485 55.1766 17.1074C55.1884 17.1504 55.2089 17.1896 55.2186 17.2336C55.2208 17.2434 55.2218 17.2522 55.224 17.262C55.2272 17.2787 55.2261 17.2748 55.2229 17.2493C55.2229 17.2562 55.2251 17.262 55.2251 17.2689C55.2272 17.2914 55.2283 17.3149 55.2283 17.3374C55.2283 17.4187 55.307 17.496 55.3996 17.4931C55.4923 17.4901 55.5709 17.4245 55.5709 17.3374C55.5688 17.1132 55.4739 16.8832 55.2897 16.7295C55.0882 16.5631 54.821 16.5082 54.5582 16.566C54.4709 16.5846 54.4106 16.6786 54.4386 16.7569C54.4677 16.8391 54.556 16.8861 54.6487 16.8656V16.8636Z" fill="#0A369D"/>
<path d="M54.9354 13.8742C54.9101 13.7412 54.9204 13.5493 54.9486 13.392C54.9842 13.191 55.0433 12.993 55.1258 12.8082C55.2083 12.6235 55.304 12.459 55.4362 12.3209C55.5431 12.2093 55.6744 12.127 55.8076 12.1189C55.998 12.1077 55.9989 11.7859 55.8076 11.7971C55.3696 11.8225 55.0602 12.2296 54.8782 12.6245C54.6963 13.0194 54.5631 13.5138 54.6475 13.9595C54.686 14.1625 54.973 14.0762 54.9345 13.8742H54.9354Z" fill="#0A369D"/>
<path d="M55.0515 12.4335C55.0348 12.4295 55.0193 12.4245 55.0026 12.4204C54.9609 12.4103 55.0217 12.4305 54.9871 12.4154C54.9585 12.4033 54.9299 12.3901 54.9024 12.375C54.8905 12.369 54.8631 12.3508 54.8893 12.3679C54.8774 12.3599 54.8655 12.3508 54.8535 12.3417C54.8297 12.3235 54.8094 12.3034 54.788 12.2842C54.7546 12.2529 54.807 12.3094 54.7784 12.2741C54.7701 12.263 54.7605 12.2519 54.7522 12.2408C54.7355 12.2176 54.7188 12.1944 54.7045 12.1691C54.6973 12.157 54.6902 12.1439 54.6842 12.1318C54.7009 12.1651 54.6806 12.1217 54.6794 12.1187C54.6687 12.0924 54.658 12.0652 54.6496 12.0379C54.6413 12.0107 54.6341 11.9824 54.6282 11.9552C54.627 11.9471 54.6198 11.9057 54.6246 11.941C54.6222 11.9269 54.621 11.9128 54.6198 11.8987C54.6139 11.8421 54.6139 11.7846 54.6186 11.7281C54.6186 11.714 54.6222 11.6998 54.6234 11.6857C54.627 11.6504 54.6174 11.7109 54.6258 11.6726C54.6318 11.6474 54.6365 11.6231 54.6437 11.5979C54.6508 11.5717 54.6592 11.5454 54.6699 11.5202C54.6747 11.5081 54.6806 11.495 54.6854 11.4829C54.7021 11.4435 54.6783 11.496 54.6938 11.4667C54.7367 11.388 54.72 11.2941 54.6258 11.2477C54.5447 11.2073 54.41 11.2265 54.367 11.3052C54.0964 11.8058 54.2526 12.5678 54.9525 12.7403C55.0503 12.7646 55.1588 12.7111 55.185 12.6283C55.2113 12.5456 55.1516 12.4557 55.0527 12.4315L55.0515 12.4335Z" fill="#0A369D"/>
<path d="M68.0382 12.2117C68.0452 11.1659 68.697 10.2699 69.6558 9.90272C70.1442 9.71561 70.6764 9.68729 71.1627 9.49412C71.4069 9.39702 71.6391 9.26352 71.8175 9.06529C71.9571 8.91055 72.0478 8.72344 72.1235 8.52925C72.2162 8.29057 72.286 8.02558 72.28 7.76667C72.276 7.57552 72.2052 7.23974 71.9631 7.23974C71.7597 7.23974 71.7597 7.56035 71.9631 7.56035H71.99L71.8783 7.51382C71.9959 7.62103 71.972 7.83039 71.9501 7.97299C71.9182 8.18235 71.8504 8.39171 71.7587 8.58083C71.5494 9.00966 71.1308 9.19374 70.6933 9.30701C70.2109 9.43141 69.7256 9.49917 69.2741 9.7237C68.8226 9.94823 68.4718 10.2577 68.1967 10.6542C67.8827 11.1093 67.7263 11.6575 67.7233 12.2117C67.7223 12.418 68.0382 12.418 68.0392 12.2117H68.0382Z" fill="#0A369D"/>
<path d="M68.4592 10.3972C68.1761 10.0604 68.1482 9.56556 68.2962 9.16384C68.4546 8.7339 68.8346 8.46389 69.29 8.4893C69.48 8.49964 69.479 8.20142 69.29 8.19107C68.842 8.16661 68.4378 8.37452 68.1826 8.74425C67.9423 9.09328 67.8641 9.54862 67.9423 9.96257C67.987 10.2025 68.0941 10.4226 68.2506 10.6079C68.3735 10.7547 68.5822 10.543 68.4592 10.3972Z" fill="#0A369D"/>
<path d="M70.4061 18.2734C70.582 18.5297 70.9248 18.6764 71.2336 18.7552C71.5424 18.8339 71.9271 18.8711 72.2069 18.7081C72.3778 18.6085 72.2189 18.3595 72.047 18.46C72.0351 18.4672 72.0221 18.4735 72.0091 18.4808C72.0081 18.4808 71.9651 18.4998 71.9921 18.4898C71.9651 18.4998 71.9371 18.508 71.9091 18.5143C71.8422 18.5297 71.8122 18.5315 71.7372 18.5333C71.5903 18.536 71.4614 18.5161 71.3185 18.4799C71.1756 18.4437 71.0497 18.3966 70.9238 18.3278C70.8668 18.297 70.8259 18.2707 70.7849 18.2381C70.7609 18.2191 70.7389 18.1983 70.7169 18.1766C70.7129 18.172 70.687 18.1412 70.7039 18.163C70.6959 18.1521 70.688 18.1412 70.68 18.1304C70.573 17.9737 70.2982 18.1177 70.4061 18.2752V18.2734Z" fill="#0A369D"/>
<path d="M66.6292 19.9836C66.7375 20.075 66.8829 20.1352 67.0464 20.1493C67.2099 20.1633 67.3691 20.1086 67.4848 20.025C67.5474 19.9797 67.5517 19.8945 67.4848 19.8499C67.4179 19.8054 67.3139 19.8015 67.247 19.8499C67.2353 19.8578 67.2237 19.8656 67.212 19.8734C67.1971 19.8836 67.247 19.8562 67.2184 19.8695C67.2131 19.8718 67.2078 19.875 67.2024 19.8773C67.1908 19.8828 67.178 19.8882 67.1664 19.8929C67.1398 19.9015 67.161 19.8953 67.1664 19.8929C67.194 19.8843 67.1685 19.8929 67.1621 19.8937C67.1494 19.8968 67.1377 19.8992 67.125 19.9015C67.1196 19.9023 67.1133 19.9031 67.108 19.9039C67.0878 19.907 67.1515 19.9007 67.1228 19.9023C67.1101 19.9023 67.0974 19.9031 67.0846 19.9031C67.0676 19.9031 67.0284 19.8961 67.0836 19.9047C67.0602 19.9007 67.0369 19.8976 67.0135 19.8914C67.0071 19.8898 66.9997 19.8882 66.9933 19.8859C66.9965 19.8875 67.0294 19.8984 67.0093 19.8906C66.9976 19.8859 66.9859 19.882 66.9742 19.8765C66.9625 19.871 66.9509 19.8656 66.9403 19.8601C66.9169 19.8484 66.9636 19.875 66.9487 19.8648C66.9434 19.8617 66.9392 19.8593 66.9339 19.8562C66.9105 19.8414 66.8893 19.8249 66.8691 19.8078C66.8108 19.7585 66.6897 19.7609 66.6314 19.8078C66.5666 19.8601 66.5698 19.9304 66.6314 19.9828L66.6292 19.9836Z" fill="#0A369D"/>
<path d="M61.7227 8.68333C61.7047 8.65359 61.6889 8.62386 61.6743 8.59303C61.6608 8.5655 61.69 8.63267 61.6777 8.60184C61.6743 8.59303 61.6709 8.58532 61.6675 8.57651C61.6619 8.55999 61.6563 8.54458 61.6518 8.52806C61.6417 8.49392 61.6338 8.45869 61.627 8.42345C61.6203 8.38821 61.6315 8.46529 61.6282 8.43226C61.6282 8.42345 61.6259 8.41354 61.6259 8.40473C61.6248 8.38601 61.6237 8.36839 61.6237 8.34967C61.6237 8.33095 61.6237 8.31333 61.6259 8.29571C61.6259 8.288 61.6293 8.26047 61.6259 8.29241C61.6226 8.32434 61.6259 8.29241 61.6282 8.2858C61.6315 8.27039 61.6349 8.25497 61.6405 8.23955C61.6428 8.23184 61.6473 8.22414 61.6495 8.21533C61.6383 8.26268 61.6372 8.24175 61.645 8.22634C61.6529 8.21092 61.6619 8.19771 61.6709 8.18339C61.6878 8.15696 61.6417 8.21533 61.663 8.1933C61.6687 8.1878 61.6743 8.18119 61.6799 8.17568C61.6855 8.17018 61.6934 8.16467 61.699 8.15917C61.69 8.17018 61.6642 8.18339 61.6912 8.16687C61.7047 8.15806 61.762 8.13274 61.7058 8.15586C61.7508 8.13714 61.7868 8.11842 61.8126 8.07548C61.8351 8.03804 61.8441 7.98298 61.8306 7.94113C61.8036 7.86075 61.7035 7.78146 61.6113 7.8189C61.5022 7.86405 61.4111 7.92682 61.3492 8.02923C61.2964 8.11842 61.2739 8.22083 61.2683 8.32324C61.2593 8.50714 61.3166 8.70535 61.4145 8.86172C61.4628 8.9399 61.5764 8.97624 61.6585 8.92448C61.7406 8.87273 61.7744 8.76922 61.7227 8.68553V8.68333Z" fill="#0A369D"/>
<path d="M57.2803 7.97561C57.2696 8.3123 57.4662 8.58871 57.7077 8.74978C57.9492 8.91084 58.2329 8.98462 58.5049 8.93163C58.5812 8.91708 58.6234 8.80797 58.6046 8.72899C58.5821 8.63547 58.5058 8.5991 58.4295 8.61365C58.4223 8.61469 58.416 8.61677 58.4089 8.61781C58.4295 8.61469 58.4313 8.61469 58.4151 8.61677C58.4044 8.61677 58.3936 8.61884 58.3828 8.61988C58.3568 8.62196 58.3299 8.62196 58.3038 8.61988C58.2778 8.61781 58.2491 8.61573 58.2221 8.61261C58.2571 8.61677 58.2131 8.61053 58.206 8.60949C58.1916 8.60637 58.1781 8.60326 58.1638 8.60014C58.1063 8.58663 58.0506 8.56793 57.9959 8.54403C57.9842 8.53883 57.9725 8.53363 57.9609 8.52844C57.9896 8.54195 57.9483 8.5222 57.9429 8.51909C57.916 8.50454 57.8899 8.48999 57.8648 8.47336C57.8415 8.45778 57.8181 8.44219 57.7957 8.42452C57.7822 8.41413 57.7687 8.4027 57.7553 8.39127C57.7804 8.41309 57.749 8.38504 57.7463 8.38192C57.7247 8.36114 57.705 8.33931 57.6852 8.31541C57.6754 8.30398 57.6673 8.29151 57.6574 8.28008C57.6332 8.24995 57.6628 8.29151 57.6475 8.26554C57.6323 8.23956 57.6179 8.21462 57.6053 8.18656C57.5999 8.17513 57.5955 8.16266 57.5901 8.15123C57.6053 8.18864 57.5865 8.13772 57.5838 8.12941C57.5802 8.11694 57.5775 8.10447 57.5748 8.092C57.573 8.08369 57.5649 8.02653 57.5694 8.07018C57.5658 8.03796 57.5658 8.00679 57.5667 7.97457C57.5694 7.88521 57.4994 7.80935 57.424 7.80935C57.3441 7.80935 57.2848 7.88521 57.2812 7.97457L57.2803 7.97561Z" fill="#0A369D"/>
<path d="M74.2457 3.16197C74.2489 2.74293 74.711 2.8582 75.0761 3.0182C74.7857 2.69925 74.4931 2.36924 74.3556 1.96162C74.2801 1.73791 74.3672 1.54605 74.5958 1.47889C74.764 1.4291 74.9124 1.47703 75.0418 1.57124C75.0188 1.47744 75.0092 1.38352 75.0205 1.28676C75.0387 1.1221 75.1758 0.995874 75.3388 0.982048C75.4598 0.971687 75.5767 1.03453 75.6714 1.12416C75.673 1.08335 75.6756 1.04209 75.6821 1.00213C75.7114 0.82629 75.8438 0.723603 76.016 0.706148C76.2234 0.685285 76.3818 0.781461 76.4936 0.929032C76.5085 0.865939 76.5328 0.803653 76.5705 0.745685C76.7982 0.39032 77.24 0.72126 77.4028 0.940664C77.6715 1.30059 77.8426 1.76557 78.0113 2.17957C78.2051 2.65633 78.3198 3.17988 78.2626 3.69516C78.2145 4.13366 78.009 4.47109 77.6473 4.71012C77.2758 4.95632 76.9078 5.17855 76.4423 5.08725C75.8631 4.97477 75.6044 4.52651 75.1772 4.1848C74.8742 3.94223 74.2431 3.61958 74.2471 3.1624L74.2457 3.16197Z" fill="white"/>
<path d="M77.9239 4.6186C78.598 3.88469 78.3768 2.76569 77.9981 1.94868C77.8282 1.5808 77.6885 1.19093 77.4439 0.863159C77.3348 0.716451 77.1875 0.578057 77.0039 0.535751C76.8203 0.493445 76.6148 0.54666 76.5035 0.704145C76.3856 0.870555 76.393 1.09219 76.41 1.28448C76.4193 1.39082 76.437 1.49619 76.4542 1.60069C76.466 1.6702 76.486 1.79329 76.4883 1.83318C76.4992 2.03306 76.8145 2.05294 76.8036 1.85084C76.7889 1.5663 76.6691 1.26627 76.7257 0.981119C76.7476 0.872296 76.8 0.814644 76.9243 0.839284C77.0548 0.865201 77.1554 0.99735 77.2269 1.09871C77.4291 1.38473 77.5419 1.72162 77.6902 2.03604C77.8547 2.38446 77.9765 2.75453 78.0249 3.13854C78.0801 3.57348 78.0232 4.05196 77.7135 4.38897C77.5773 4.53691 77.7877 4.77098 77.9253 4.62125L77.9239 4.6186Z" fill="#0A369D"/>
<path d="M76.6784 1.09505C76.5801 0.841837 76.3805 0.635612 76.0955 0.624779C75.9245 0.61828 75.7457 0.675697 75.658 0.833421C75.577 0.980002 75.5837 1.1542 75.6109 1.31359C75.6404 1.48183 75.6979 1.64583 75.7616 1.80446C75.8181 1.94674 75.8831 2.08585 75.9521 2.22182C76.0435 2.40194 76.3254 2.25894 76.234 2.07882C76.1825 1.97729 76.1336 1.8744 76.0883 1.7697C76.0592 1.70123 76.0309 1.6323 76.0057 1.56291C76.0026 1.55451 75.999 1.54523 75.9968 1.53638C76.0102 1.57395 76.0026 1.55229 75.9999 1.54478C75.9941 1.52665 75.9878 1.50985 75.9819 1.49172C75.9698 1.45458 75.959 1.41788 75.95 1.38026C75.9324 1.31258 75.9179 1.24442 75.911 1.17575C75.9101 1.16733 75.9097 1.1598 75.9087 1.15138C75.9142 1.1908 75.9097 1.1731 75.9092 1.16335C75.9092 1.14783 75.9082 1.13277 75.9082 1.11725C75.9081 1.10173 75.909 1.08798 75.9103 1.07289C75.9111 1.06357 75.9177 1.01474 75.9129 1.04272C75.9081 1.07069 75.9159 1.03116 75.9186 1.02316C75.9226 1.01115 75.9288 0.999124 75.9314 0.986685C75.9384 0.960907 75.9137 1.01123 75.9256 0.999595C75.9292 0.995573 75.9314 0.988902 75.9345 0.983998C75.9363 0.980879 75.9412 0.975073 75.9429 0.971954C75.9526 0.949256 75.9132 0.999259 75.9372 0.978211C75.9452 0.971934 75.9545 0.963872 75.9616 0.955829C75.9793 0.935722 75.9256 0.970773 75.9518 0.963008C75.9562 0.960752 75.9616 0.958047 75.966 0.955792C75.9722 0.952634 75.9776 0.949927 75.9838 0.946769C76.0123 0.932334 75.9714 0.957518 75.9714 0.950868C75.9709 0.947768 76.0216 0.93979 76.0239 0.93977C76.0301 0.938829 76.0368 0.938772 76.043 0.937831C76.0007 0.944848 76.0319 0.937928 76.043 0.937831C76.0657 0.938521 76.088 0.938328 76.1116 0.940784C76.1196 0.941158 76.1281 0.942415 76.1365 0.943672C76.1521 0.945754 76.1534 0.946186 76.1401 0.944084C76.149 0.946224 76.157 0.948815 76.1655 0.952289C76.19 0.960945 76.1985 0.964418 76.2275 0.98412C76.2565 1.00382 76.2534 1.00208 76.2824 1.03286C76.2895 1.04034 76.2962 1.04915 76.3038 1.05751C76.3056 1.06104 76.3329 1.09716 76.3172 1.07513C76.3508 1.12583 76.3772 1.18235 76.3992 1.23892C76.4293 1.31803 76.5407 1.34366 76.6118 1.30758C76.6945 1.26562 76.7125 1.17546 76.682 1.09547L76.6784 1.09505Z" fill="#0A369D"/>
<path d="M75.9142 1.33178C75.846 1.14437 75.6513 0.963376 75.4561 0.915849C75.261 0.868322 75.0503 0.975235 74.9712 1.16747C74.9115 1.31209 74.9365 1.48037 74.9833 1.6254C75.0385 1.79607 75.1192 1.95721 75.2092 2.11251C75.2884 2.25105 75.3792 2.38373 75.4558 2.52363C75.5525 2.70103 75.8343 2.55803 75.7376 2.38062C75.6109 2.14849 75.4557 1.93301 75.3463 1.69098C75.332 1.65829 75.3176 1.6256 75.3055 1.5929C75.3015 1.58273 75.2884 1.54383 75.2983 1.57434C75.292 1.55533 75.2857 1.53631 75.2803 1.51685C75.2718 1.48677 75.2641 1.45625 75.2591 1.42436C75.2569 1.41108 75.255 1.39647 75.2537 1.38273C75.2491 1.3473 75.2511 1.40404 75.2527 1.36101C75.2531 1.3486 75.2544 1.33573 75.2548 1.32331C75.2557 1.3162 75.2566 1.3091 75.2574 1.302C75.2591 1.28114 75.2495 1.33045 75.2557 1.31177C75.2592 1.3011 75.2641 1.28864 75.2662 1.27754C75.2676 1.2691 75.2809 1.25125 75.2609 1.28689C75.2649 1.27932 75.2689 1.27175 75.2733 1.26506C75.2831 1.24901 75.2955 1.24048 75.2742 1.26017C75.284 1.25078 75.296 1.24136 75.3044 1.23154C75.3204 1.21455 75.2777 1.24285 75.3115 1.22793C75.3186 1.22432 75.3266 1.22026 75.3337 1.21665C75.3426 1.21214 75.3426 1.21214 75.3337 1.21665C75.3222 1.2203 75.3248 1.22116 75.3404 1.21659C75.3404 1.21659 75.3765 1.21717 75.3413 1.21614C75.3507 1.21695 75.3605 1.21642 75.3703 1.21811C75.3462 1.21477 75.4001 1.22849 75.4095 1.23151C75.4331 1.24062 75.3925 1.22235 75.4162 1.23367C75.4282 1.23977 75.4398 1.24721 75.451 1.25377C75.4692 1.26558 75.488 1.27828 75.5049 1.29187C75.4893 1.27871 75.5099 1.29715 75.5116 1.29847C75.5219 1.30769 75.5313 1.31736 75.5411 1.32792C75.5581 1.34595 75.5742 1.36444 75.5885 1.38382C75.5907 1.38824 75.605 1.40984 75.5903 1.38735C75.5948 1.39618 75.601 1.40411 75.6055 1.41294C75.6158 1.43325 75.6261 1.45355 75.6333 1.47433C75.6625 1.55389 75.7756 1.57863 75.8459 1.54299C75.9295 1.50059 75.9448 1.41177 75.916 1.33088L75.9142 1.33178Z" fill="#0A369D"/>
<path d="M75.6068 2.16272C75.418 1.86329 75.1682 1.4083 74.7638 1.38254C74.5295 1.36817 74.2793 1.49626 74.2511 1.74703C74.2282 1.95962 74.3468 2.17585 74.4551 2.34962C74.5952 2.57276 74.761 2.78061 74.9326 2.97999C75.059 3.12566 75.1957 3.26281 75.3199 3.41072C75.4442 3.55862 75.6835 3.35392 75.5544 3.19852C75.3256 2.92382 75.0723 2.67371 74.8599 2.38513C74.7965 2.29966 74.749 2.23045 74.6908 2.12898C74.6662 2.08707 74.6434 2.04425 74.6232 2.00009C74.6134 1.98067 74.6057 1.96122 74.5981 1.94178C74.5932 1.93207 74.5896 1.92057 74.5864 1.90995C74.5995 1.94664 74.5846 1.90642 74.5837 1.90022C74.5752 1.86571 74.567 1.83208 74.5634 1.7962C74.568 1.8405 74.566 1.78598 74.5655 1.77401C74.5655 1.76736 74.5668 1.76114 74.5681 1.75492C74.5603 1.8144 74.5686 1.75137 74.5717 1.75312C74.5806 1.75969 74.5702 1.69283 74.5673 1.75981C74.5673 1.75537 74.5757 1.74776 74.577 1.74376C74.5872 1.71529 74.5606 1.76652 74.5708 1.74913C74.5743 1.7429 74.5832 1.73617 74.5881 1.73258C74.6041 1.72002 74.5597 1.74701 74.6014 1.72581C74.6103 1.7213 74.6183 1.71724 74.6277 1.71361C74.6023 1.72536 74.6174 1.71548 74.6357 1.71177C74.7723 1.68132 74.8673 1.72528 74.9668 1.82241C75.1111 1.96349 75.218 2.13682 75.325 2.30572C75.4319 2.47462 75.7147 2.33338 75.6068 2.16272Z" fill="#0A369D"/>
<path d="M77.3665 4.62831C77.1098 4.82297 76.7891 4.93349 76.467 4.8649C76.1145 4.78947 75.8475 4.54747 75.6254 4.27936C75.4033 4.01125 75.0848 3.83311 74.8197 3.61237C74.7059 3.51803 74.5773 3.40785 74.5136 3.27139C74.4894 3.21928 74.4924 3.17447 74.4829 3.12046C74.4815 3.10894 74.4789 3.11251 74.5016 3.11098C74.7767 3.08687 75.1027 3.27116 75.3316 3.41595C75.5029 3.52443 75.6748 3.25955 75.5035 3.15107C75.2314 2.97829 74.8701 2.78854 74.5384 2.79363C74.3777 2.79635 74.2274 2.87037 74.1808 3.03395C74.1283 3.21487 74.2117 3.4057 74.3168 3.54889C74.5699 3.89344 74.9765 4.08678 75.2829 4.37544C75.4392 4.52263 75.5613 4.69716 75.7295 4.83493C75.8978 4.9727 76.0722 5.07406 76.2714 5.13618C76.7354 5.28159 77.1998 5.14587 77.5783 4.85837C77.7395 4.73548 77.5282 4.50409 77.3665 4.62609L77.3665 4.62831Z" fill="#0A369D"/>
<path d="M77.8663 5.56488C77.8094 5.59375 77.7552 5.61684 77.7045 5.63368C77.6322 5.58598 77.4875 5.44401 77.4374 5.37173C77.3439 5.23375 77.2776 5.09421 77.2425 4.96106C77.4269 4.85304 77.7993 4.6086 78.0853 4.24254C78.2625 4.3758 78.4168 4.59838 78.5455 4.90498C78.4678 5.12425 78.1811 5.40519 77.8663 5.56488Z" fill="#99DAF0"/>
<path d="M78.1007 4.46896C78.1999 4.57629 78.2916 4.72182 78.3737 4.90556C78.2896 5.06592 78.0668 5.28777 77.7965 5.42491C77.7751 5.43574 77.7547 5.44611 77.7342 5.45427C77.6717 5.39939 77.5953 5.31935 77.5707 5.28409C77.5126 5.19813 77.4665 5.11163 77.4324 5.02901C77.6132 4.91393 77.8718 4.72502 78.1016 4.46851M78.046 4.03047C77.6927 4.55719 77.0988 4.86296 77.0668 4.8792L77.065 4.8801C77.095 5.08469 77.1896 5.28651 77.3081 5.46062C77.364 5.54217 77.5861 5.7748 77.6948 5.79958C77.7717 5.7794 77.8545 5.74632 77.938 5.70391C78.2803 5.53024 78.6435 5.19499 78.7125 4.89465C78.5792 4.55926 78.3746 4.20011 78.0446 4.03004L78.046 4.03047Z" fill="#0A369D"/>
</svg>
